<?xml version="1.0" encoding="utf-8"?>
<!-- Generator: Adobe Illustrator 16.0.5, SVG Export Plug-In . SVG Version: 6.00 Build 0)  -->
<!DOCTYPE svg PUBLIC "-//W3C//DTD SVG 1.1//EN" "http://www.w3.org/Graphics/SVG/1.1/DTD/svg11.dtd">
<svg version="1.1" id="PICTOS-MAIN-SECTION" xmlns="http://www.w3.org/2000/svg" xmlns:xlink="http://www.w3.org/1999/xlink"
	 x="0px" y="0px" width="60px" height="60px" viewBox="0 0 60 60" enable-background="new 0 0 60 60" xml:space="preserve">
<path fill="#FFFFFF" d="M30,32.122c0.18,0,0.358,0.055,0.512,0.166l4.67,3.393l-1.784-5.49c-0.115-0.358,0.011-0.75,0.317-0.973
	l4.669-3.392h-5.771c-0.377,0-0.712-0.243-0.827-0.601L30,19.735l-1.783,5.489c-0.117,0.358-0.451,0.601-0.827,0.601h-5.772
	l4.669,3.393c0.304,0.221,0.432,0.615,0.315,0.973l-1.782,5.49l4.668-3.393C29.642,32.177,29.82,32.122,30,32.122L30,32.122z
	 M36.837,38.829c-0.18,0-0.359-0.055-0.512-0.166L30,34.068l-6.323,4.594c-0.306,0.221-0.718,0.221-1.024,0
	c-0.304-0.222-0.432-0.614-0.315-0.974l2.416-7.435l-6.325-4.595c-0.305-0.222-0.432-0.614-0.317-0.973
	c0.117-0.358,0.452-0.602,0.829-0.602h7.818l2.416-7.435c0.117-0.358,0.451-0.601,0.827-0.601c0.378,0,0.712,0.243,0.829,0.601
	l2.415,7.437h7.817c0.377,0,0.712,0.243,0.827,0.601c0.117,0.358-0.011,0.751-0.314,0.973l-6.325,4.595l2.415,7.435
	c0.115,0.357-0.011,0.752-0.316,0.973C37.195,38.774,37.016,38.829,36.837,38.829L36.837,38.829z M31.148,49.903
	c1.02,0.634,2.203,0.979,3.401,0.979c0.467,0,0.938-0.053,1.398-0.154c1.66-0.369,3.086-1.365,4.001-2.775
	c-1.416-0.881-3.156-1.187-4.799-0.822C33.488,47.497,32.064,48.494,31.148,49.903L31.148,49.903z M20.053,47.952
	c0.917,1.41,2.34,2.406,4.002,2.774c1.644,0.364,3.381,0.06,4.8-0.823c-0.916-1.411-2.341-2.406-4.002-2.773
	C23.21,46.764,21.47,47.071,20.053,47.952L20.053,47.952z M14.263,11.668c0.326-0.063,0.658-0.108,0.995-0.131
	c0.406-0.026,0.786,0.232,0.898,0.629c0.166,0.578,0.266,1.164,0.303,1.75c0.512-0.166,1.004-0.395,1.464-0.688
	c1.435-0.915,2.432-2.338,2.812-3.977c-1.631-0.345-3.372-0.036-4.792,0.869C15.285,10.539,14.719,11.063,14.263,11.668
	L14.263,11.668z M14.646,13.367c-1.653,0.306-3.118,1.242-4.094,2.637c-0.457,0.652-0.783,1.368-0.972,2.119l0.089-0.046
	c0.367-0.183,0.815-0.083,1.07,0.238c0.389,0.489,0.717,1.013,0.981,1.564c0.718-0.451,1.349-1.046,1.85-1.762
	C14.545,16.723,14.922,15.025,14.646,13.367L14.646,13.367z M9.804,20c-1.41,0.917-2.405,2.342-2.773,4.004
	c-0.172,0.778-0.199,1.565-0.086,2.331c0.335-0.387,0.784-0.467,1.146-0.268c0.546,0.305,1.048,0.663,1.502,1.07
	c0.491-0.692,0.846-1.482,1.035-2.335C10.996,23.14,10.696,21.427,9.804,20L9.804,20z M7.87,27.985
	c-0.952,1.387-1.325,3.083-1.03,4.761c0.139,0.782,0.415,1.521,0.812,2.185l0.031-0.097c0.13-0.391,0.517-0.637,0.925-0.589
	c0.62,0.07,1.222,0.21,1.797,0.412c0.189-0.827,0.215-1.691,0.063-2.553C10.173,30.431,9.241,28.964,7.87,27.985L7.87,27.985z
	 M9.14,36.099c-0.351,1.646-0.046,3.356,0.869,4.791c0.427,0.672,0.967,1.248,1.586,1.71l-0.008-0.101
	c-0.029-0.409,0.234-0.784,0.629-0.897c0.594-0.169,1.204-0.272,1.819-0.306c-0.142-0.837-0.449-1.647-0.919-2.385
	C12.201,37.477,10.777,36.478,9.14,36.099L9.14,36.099z M13.417,43.112c0.308,1.653,1.242,3.117,2.637,4.093
	c0.646,0.454,1.365,0.778,2.117,0.968l-0.043-0.085c-0.185-0.369-0.086-0.814,0.237-1.071c0.486-0.385,1.012-0.711,1.566-0.975
	c-0.45-0.72-1.047-1.352-1.763-1.854C16.787,43.222,15.075,42.836,13.417,43.112L13.417,43.112z M40.07,46.042
	c0.555,0.264,1.081,0.59,1.566,0.976c0.321,0.256,0.422,0.701,0.237,1.068l-0.046,0.091c0.753-0.188,1.47-0.515,2.118-0.97
	c1.396-0.978,2.331-2.441,2.639-4.095c-1.653-0.276-3.369,0.108-4.75,1.075C41.117,44.69,40.521,45.322,40.07,46.042L40.07,46.042z
	 M50.863,36.101c-1.639,0.377-3.062,1.374-3.978,2.811c-0.469,0.737-0.778,1.548-0.919,2.385c0.614,0.033,1.225,0.137,1.818,0.306
	c0.396,0.113,0.658,0.488,0.629,0.897L48.406,42.6c0.621-0.462,1.159-1.037,1.587-1.709C50.908,39.455,51.211,37.744,50.863,36.101
	L50.863,36.101z M52.132,27.986c-1.372,0.978-2.304,2.443-2.599,4.118c-0.152,0.861-0.128,1.727,0.062,2.553
	c0.576-0.202,1.18-0.342,1.801-0.412c0.408-0.048,0.793,0.199,0.924,0.59l0.03,0.096c0.397-0.664,0.674-1.402,0.813-2.185
	C53.457,31.068,53.083,29.372,52.132,27.986L52.132,27.986z M50.197,20.002c-0.892,1.425-1.191,3.138-0.822,4.8
	c0.189,0.853,0.543,1.644,1.035,2.335c0.453-0.408,0.957-0.766,1.503-1.069c0.36-0.201,0.811-0.12,1.145,0.266
	c0.111-0.764,0.086-1.553-0.087-2.329C52.604,22.342,51.607,20.917,50.197,20.002L50.197,20.002z M45.356,13.367
	c-0.278,1.659,0.1,3.356,1.076,4.75c0.501,0.715,1.131,1.31,1.85,1.761c0.264-0.549,0.592-1.073,0.979-1.564
	c0.256-0.321,0.703-0.419,1.07-0.237l0.091,0.046c-0.189-0.749-0.515-1.467-0.972-2.119C48.473,14.609,47.009,13.672,45.356,13.367
	L45.356,13.367z M39.27,9.251c0.38,1.64,1.379,3.063,2.813,3.977c0.458,0.291,0.95,0.521,1.46,0.688
	c0.037-0.586,0.139-1.173,0.304-1.75c0.113-0.397,0.49-0.655,0.897-0.629c0.337,0.023,0.67,0.067,0.998,0.131
	c-0.457-0.604-1.022-1.13-1.681-1.548C42.644,9.215,40.902,8.906,39.27,9.251L39.27,9.251z M25.456,52.62
	c-0.594,0-1.192-0.064-1.777-0.195c-1.599-0.354-3.026-1.165-4.13-2.316c-1.614-0.037-3.164-0.546-4.492-1.478
	c-1.341-0.939-2.349-2.234-2.927-3.718c-1.459-0.645-2.709-1.707-3.588-3.087c-0.879-1.381-1.315-2.962-1.281-4.555
	c-1.103-1.152-1.85-2.611-2.134-4.225c-0.284-1.612-0.08-3.24,0.56-4.699c-0.576-1.487-0.708-3.123-0.354-4.72
	c0.354-1.599,1.166-3.025,2.315-4.128c0.037-1.594,0.54-3.155,1.479-4.494c0.706-1.008,1.613-1.828,2.651-2.42
	c0.623-1.606,1.74-2.985,3.23-3.933c2.066-1.317,4.674-1.631,6.992-0.858c0.389,0.131,0.635,0.515,0.589,0.924
	c-0.283,2.468-1.642,4.645-3.731,5.976c-0.771,0.492-1.613,0.847-2.489,1.058c-0.195,1.193-0.658,2.341-1.372,3.361
	c-0.715,1.021-1.634,1.846-2.688,2.438c0.275,1.176,0.286,2.412,0.017,3.626c-0.269,1.215-0.803,2.331-1.548,3.279
	c0.704,0.982,1.188,2.12,1.405,3.346c0.215,1.224,0.149,2.458-0.175,3.62c1.025,0.637,1.908,1.502,2.577,2.552
	c0.669,1.051,1.081,2.216,1.224,3.415c1.203,0.197,2.345,0.661,3.358,1.371c1.022,0.717,1.85,1.64,2.443,2.695
	c1.181-0.275,2.421-0.293,3.621-0.025c1.929,0.427,3.608,1.521,4.772,3.076c1.163-1.555,2.841-2.649,4.771-3.076
	c1.199-0.267,2.439-0.25,3.62,0.025c0.593-1.056,1.421-1.979,2.443-2.695c1.015-0.71,2.157-1.174,3.357-1.371
	c0.145-1.199,0.556-2.364,1.225-3.415c0.67-1.05,1.551-1.914,2.576-2.552c-0.326-1.162-0.391-2.396-0.175-3.62
	c0.215-1.228,0.699-2.365,1.405-3.346c-0.746-0.95-1.279-2.064-1.549-3.279c-0.269-1.214-0.258-2.451,0.018-3.626
	c-1.054-0.591-1.972-1.418-2.687-2.437c-0.715-1.021-1.178-2.169-1.373-3.364c-0.876-0.209-1.716-0.564-2.485-1.056
	c-2.09-1.33-3.449-3.508-3.733-5.975c-0.046-0.409,0.198-0.794,0.589-0.925c2.32-0.775,4.928-0.459,6.994,0.856
	c1.489,0.949,2.607,2.329,3.229,3.936c1.038,0.591,1.943,1.41,2.649,2.418c0.94,1.341,1.443,2.901,1.479,4.496
	c1.15,1.103,1.962,2.528,2.315,4.126c0.355,1.599,0.223,3.235-0.354,4.72c0.64,1.46,0.843,3.087,0.558,4.699
	c-0.282,1.611-1.029,3.072-2.132,4.225c0.033,1.593-0.401,3.174-1.281,4.556c-0.879,1.379-2.129,2.441-3.587,3.086
	c-0.579,1.483-1.586,2.779-2.929,3.719c-1.328,0.931-2.878,1.439-4.492,1.477c-1.104,1.151-2.529,1.963-4.128,2.318
	c-0.586,0.129-1.183,0.195-1.775,0.195c-1.613,0-3.204-0.489-4.548-1.387C28.656,52.133,27.066,52.62,25.456,52.62L25.456,52.62z"/>
</svg>
