<?xml version="1.0" encoding="utf-8"?>
<!-- Generator: Adobe Illustrator 16.0.5, SVG Export Plug-In . SVG Version: 6.00 Build 0)  -->
<!DOCTYPE svg PUBLIC "-//W3C//DTD SVG 1.1//EN" "http://www.w3.org/Graphics/SVG/1.1/DTD/svg11.dtd">
<svg version="1.1" id="PICTOS-MAIN-SECTION" xmlns="http://www.w3.org/2000/svg" xmlns:xlink="http://www.w3.org/1999/xlink"
	 x="0px" y="0px" width="60px" height="60px" viewBox="0 0 60 60" enable-background="new 0 0 60 60" xml:space="preserve">
<path fill="#FFFFFF" d="M44.088,32.139c-1.238,0-2.247,1.007-2.247,2.247c0,1.238,1.009,2.246,2.247,2.246
	c1.24,0,2.247-1.007,2.247-2.246C46.335,33.146,45.328,32.139,44.088,32.139L44.088,32.139z M44.088,38.002
	c-1.994,0-3.617-1.622-3.617-3.616s1.623-3.617,3.617-3.617s3.616,1.623,3.616,3.617S46.082,38.002,44.088,38.002L44.088,38.002z
	 M11.38,27.861h9.063l0-4.324l-2.377-0.791l-1.552,2.868c-0.119,0.222-0.351,0.359-0.602,0.359c-0.251,0-0.482-0.138-0.602-0.359
	l-1.552-2.868l-2.377,0.791V27.861L11.38,27.861z M25.469,27.861h9.063v-4.324l-2.377-0.791l-1.553,2.868
	c-0.119,0.222-0.35,0.359-0.602,0.359c-0.251,0-0.482-0.138-0.602-0.359l-1.552-2.868l-2.377,0.791V27.861L25.469,27.861z
	 M5.685,29.23C5.306,29.23,5,28.923,5,28.546c0-0.379,0.306-0.685,0.685-0.685h4.327v-4.818c0-0.295,0.189-0.556,0.469-0.649
	l3.391-1.127c0.314-0.104,0.66,0.033,0.818,0.324l1.223,2.26l1.224-2.26c0.158-0.293,0.503-0.428,0.818-0.324l3.39,1.127
	c0.28,0.093,0.468,0.354,0.468,0.649l0.001,4.818H24.1v-4.818c0-0.295,0.189-0.556,0.469-0.649l3.39-1.127
	c0.314-0.104,0.66,0.031,0.818,0.324L30,23.851l1.223-2.26c0.158-0.293,0.504-0.428,0.818-0.324l3.391,1.127
	c0.279,0.093,0.469,0.354,0.469,0.649v4.818h2.287v-4.818c0-0.295,0.189-0.556,0.469-0.649l3.391-1.127
	c0.314-0.104,0.66,0.031,0.818,0.324l1.223,2.26l1.223-2.26c0.158-0.293,0.504-0.428,0.818-0.324l3.391,1.127
	c0.279,0.093,0.469,0.354,0.469,0.649v4.818h4.327c0.378,0,0.685,0.306,0.685,0.685c0,0.377-0.307,0.685-0.685,0.685H5.685
	L5.685,29.23z M39.557,27.861h9.063v-4.324l-2.377-0.791l-1.553,2.868c-0.119,0.222-0.35,0.359-0.602,0.359
	s-0.482-0.138-0.602-0.359l-1.553-2.868l-2.377,0.791V27.861L39.557,27.861z M15.912,20.701c-1.994,0-3.616-1.622-3.616-3.616
	s1.623-3.616,3.616-3.616c1.995,0,3.617,1.622,3.617,3.616S17.906,20.701,15.912,20.701L15.912,20.701z M15.912,14.837
	c-1.239,0-2.247,1.008-2.247,2.247c0,1.24,1.008,2.247,2.247,2.247c1.239,0,2.248-1.007,2.248-2.247
	C18.159,15.845,17.151,14.837,15.912,14.837L15.912,14.837z M30,20.701c-1.994,0-3.616-1.622-3.616-3.616s1.622-3.616,3.616-3.616
	c1.995,0,3.617,1.622,3.617,3.616S31.994,20.701,30,20.701L30,20.701z M30,14.837c-1.238,0-2.247,1.008-2.247,2.247
	c0,1.24,1.008,2.247,2.247,2.247c1.239,0,2.248-1.007,2.248-2.247C32.247,15.845,31.238,14.837,30,14.837L30,14.837z M44.088,20.701
	c-1.994,0-3.617-1.622-3.617-3.616s1.623-3.616,3.617-3.616s3.616,1.622,3.616,3.616S46.082,20.701,44.088,20.701L44.088,20.701z
	 M44.088,14.837c-1.238,0-2.247,1.008-2.247,2.247c0,1.24,1.009,2.247,2.247,2.247c1.24,0,2.247-1.007,2.247-2.247
	C46.335,15.845,45.328,14.837,44.088,14.837L44.088,14.837z M11.38,45.161h9.063l0-4.323l-2.377-0.79l-1.552,2.869
	c-0.119,0.22-0.351,0.359-0.602,0.359c-0.251,0-0.482-0.139-0.602-0.359l-1.552-2.869l-2.377,0.79V45.161L11.38,45.161z
	 M25.469,45.161h9.063v-4.323l-2.377-0.79l-1.552,2.869c-0.12,0.22-0.351,0.359-0.603,0.359c-0.251,0-0.482-0.139-0.602-0.359
	l-1.552-2.869l-2.377,0.79V45.161L25.469,45.161z M5.685,46.531C5.306,46.531,5,46.225,5,45.847s0.306-0.686,0.685-0.686h4.327
	v-4.817c0-0.295,0.189-0.556,0.469-0.65l3.391-1.126c0.314-0.104,0.66,0.031,0.818,0.324l1.223,2.26l1.224-2.26
	c0.158-0.293,0.503-0.428,0.818-0.324l3.39,1.126c0.28,0.094,0.468,0.355,0.468,0.65l0.001,4.817H24.1v-4.817
	c0-0.295,0.189-0.556,0.469-0.65l3.39-1.126c0.314-0.104,0.66,0.031,0.818,0.324L30,41.152l1.223-2.26
	c0.158-0.293,0.504-0.428,0.818-0.324l3.391,1.126c0.279,0.094,0.469,0.355,0.469,0.65v4.817h2.287v-4.817
	c0-0.295,0.189-0.556,0.469-0.65l3.391-1.126c0.314-0.104,0.66,0.031,0.818,0.324l1.223,2.26l1.223-2.26
	c0.158-0.293,0.504-0.428,0.818-0.324l3.391,1.126c0.279,0.094,0.469,0.355,0.469,0.65v4.817h4.327c0.378,0,0.685,0.308,0.685,0.686
	s-0.307,0.685-0.685,0.685H5.685L5.685,46.531z M39.557,45.161h9.063v-4.323l-2.377-0.79l-1.553,2.869
	c-0.119,0.22-0.35,0.359-0.602,0.359s-0.482-0.139-0.602-0.359l-1.553-2.869l-2.377,0.79V45.161L39.557,45.161z M15.912,38.002
	c-1.994,0-3.616-1.622-3.616-3.616s1.623-3.617,3.616-3.617c1.995,0,3.617,1.623,3.617,3.617S17.906,38.002,15.912,38.002
	L15.912,38.002z M15.912,32.139c-1.239,0-2.247,1.007-2.247,2.247c0,1.238,1.008,2.246,2.247,2.246c1.239,0,2.248-1.007,2.248-2.246
	C18.159,33.146,17.151,32.139,15.912,32.139L15.912,32.139z M30,38.002c-1.994,0-3.616-1.622-3.616-3.616s1.622-3.617,3.616-3.617
	c1.995,0,3.617,1.623,3.617,3.617S31.994,38.002,30,38.002L30,38.002z M30,32.139c-1.238,0-2.247,1.007-2.247,2.247
	c0,1.238,1.008,2.246,2.247,2.246c1.239,0,2.248-1.007,2.248-2.246C32.247,33.146,31.238,32.139,30,32.139L30,32.139z"/>
</svg>
