<?xml version="1.0" encoding="utf-8"?>
<!-- Generator: Adobe Illustrator 16.0.5, SVG Export Plug-In . SVG Version: 6.00 Build 0)  -->
<!DOCTYPE svg PUBLIC "-//W3C//DTD SVG 1.1//EN" "http://www.w3.org/Graphics/SVG/1.1/DTD/svg11.dtd">
<svg version="1.1" id="PICTOS-MAIN-SECTION" xmlns="http://www.w3.org/2000/svg" xmlns:xlink="http://www.w3.org/1999/xlink"
	 x="0px" y="0px" width="60px" height="60px" viewBox="0 0 60 60" enable-background="new 0 0 60 60" xml:space="preserve">
<path fill="#FFFFFF" d="M39.755,43.185l-13.117,2.801c1.713,3.103,5.487,4.455,8.813,3.077
	C37.883,48.056,39.535,45.779,39.755,43.185L39.755,43.185z M9.132,31.579L6.836,32.53l6.882,16.597l2.288-0.946L9.132,31.579
	L9.132,31.579z M47.927,39.571L37.791,15.097l-26.43,17.121l5.777,13.932L47.927,39.571L47.927,39.571z M50.836,43.751
	c-0.714,0-1.353-0.428-1.629-1.091l-0.569-1.373l-7.033,1.501c-0.083,3.498-2.221,6.617-5.454,7.959
	c-1.112,0.461-2.265,0.679-3.392,0.679c-3.312,0-6.461-1.872-7.968-5.044l-6.977,1.489c0.159,0.81-0.271,1.646-1.057,1.973
	l-2.394,0.99c-0.215,0.089-0.441,0.134-0.675,0.134c-0.72,0-1.359-0.427-1.635-1.091L5.131,33.178
	c-0.368-0.898,0.062-1.937,0.959-2.311l2.396-0.99c0.215-0.089,0.441-0.134,0.672-0.134c0.6,0,1.146,0.299,1.467,0.781L37.08,13.384
	l-0.569-1.375c-0.371-0.901,0.056-1.937,0.957-2.311l2.394-0.99c0.215-0.089,0.443-0.134,0.675-0.134c0.72,0,1.361,0.43,1.632,1.091
	l12.699,30.651c0.371,0.901-0.059,1.936-0.956,2.31l-2.392,0.99C51.302,43.706,51.073,43.751,50.836,43.751L50.836,43.751z
	 M38.218,11.358l12.655,30.554l2.287-0.948L40.503,10.41L38.218,11.358L38.218,11.358z"/>
</svg>
