<?xml version="1.0" encoding="utf-8"?>
<!-- Generator: Adobe Illustrator 16.0.5, SVG Export Plug-In . SVG Version: 6.00 Build 0)  -->
<!DOCTYPE svg PUBLIC "-//W3C//DTD SVG 1.1//EN" "http://www.w3.org/Graphics/SVG/1.1/DTD/svg11.dtd">
<svg version="1.1" id="PICTOS-MAIN-SECTION" xmlns="http://www.w3.org/2000/svg" xmlns:xlink="http://www.w3.org/1999/xlink"
	 x="0px" y="0px" width="60px" height="60px" viewBox="0 0 60 60" enable-background="new 0 0 60 60" xml:space="preserve">
<path fill="#FFFFFF" d="M43.28,27.044h-0.501V5.973C42.779,5.435,42.344,5,41.807,5s-0.973,0.435-0.973,0.973V9.86H19.165V5.973
	C19.165,5.435,18.73,5,18.192,5c-0.536,0-0.972,0.435-0.972,0.973v21.072h-0.502c-2.389,0-4.332,1.795-4.332,4.001
	c0,2.206,1.943,4.001,4.332,4.001h3.305l8.621,8.888l-9.134,9.416c-0.374,0.386-0.364,1.002,0.021,1.376
	C19.721,54.908,19.965,55,20.209,55c0.254,0,0.507-0.1,0.698-0.296l2.938-3.029h12.307l2.939,3.029C39.282,54.9,39.536,55,39.79,55
	c0.244,0,0.488-0.092,0.677-0.274c0.386-0.374,0.396-0.99,0.021-1.376l-9.134-9.416l8.622-8.888h3.304
	c2.389,0,4.333-1.795,4.333-4.001C47.613,28.84,45.669,27.044,43.28,27.044L43.28,27.044z M40.834,11.804v8.551H19.165v-8.551
	H40.834L40.834,11.804z M19.165,22.3h21.669v4.745H19.165V22.3L19.165,22.3z M34.267,49.729h-8.534l4.267-4.398L34.267,49.729
	L34.267,49.729z M29.999,42.537l-7.267-7.491h14.534L29.999,42.537L29.999,42.537z M43.28,33.102H16.719
	c-1.315,0-2.388-0.922-2.388-2.056c0-1.133,1.072-2.056,2.388-2.056H43.28c1.316,0,2.388,0.922,2.388,2.056
	C45.668,32.179,44.597,33.102,43.28,33.102L43.28,33.102z"/>
</svg>
