<?xml version="1.0" encoding="utf-8"?>
<!-- Generator: Adobe Illustrator 16.0.5, SVG Export Plug-In . SVG Version: 6.00 Build 0)  -->
<!DOCTYPE svg PUBLIC "-//W3C//DTD SVG 1.1//EN" "http://www.w3.org/Graphics/SVG/1.1/DTD/svg11.dtd">
<svg version="1.1" id="PICTOS-MAIN-SECTION" xmlns="http://www.w3.org/2000/svg" xmlns:xlink="http://www.w3.org/1999/xlink"
	 x="0px" y="0px" width="60px" height="60px" viewBox="0 0 60 60" enable-background="new 0 0 60 60" xml:space="preserve">
<path fill="#FFFFFF" d="M40.24,49.601h7.587V10.399H40.24V49.601L40.24,49.601z M26.208,49.601h7.585V24.434h-7.585V49.601
	L26.208,49.601z M5.817,51.234C5.366,51.234,5,50.869,5,50.418s0.366-0.817,0.817-0.817h4.722V37.651
	c0-0.451,0.366-0.816,0.817-0.816h9.22c0.451,0,0.817,0.365,0.817,0.816v11.949h3.181V23.617c0-0.451,0.366-0.816,0.817-0.816h9.219
	c0.451,0,0.817,0.365,0.817,0.816v25.983h3.181V9.583c0-0.451,0.365-0.817,0.816-0.817h9.22c0.451,0,0.817,0.366,0.817,0.817v40.018
	h4.723c0.45,0,0.816,0.366,0.816,0.817s-0.366,0.816-0.816,0.816H5.817L5.817,51.234z M12.173,49.601h7.586V38.468h-7.586V49.601
	L12.173,49.601z"/>
</svg>
