<?xml version="1.0" encoding="utf-8"?>
<!-- Generator: Adobe Illustrator 16.0.5, SVG Export Plug-In . SVG Version: 6.00 Build 0)  -->
<!DOCTYPE svg PUBLIC "-//W3C//DTD SVG 1.1//EN" "http://www.w3.org/Graphics/SVG/1.1/DTD/svg11.dtd">
<svg version="1.1" id="PICTOS-MAIN-SECTION" xmlns="http://www.w3.org/2000/svg" xmlns:xlink="http://www.w3.org/1999/xlink"
	 x="0px" y="0px" width="60px" height="60px" viewBox="0 0 60 60" enable-background="new 0 0 60 60" xml:space="preserve">
<path fill="#FFFFFF" d="M15.405,35.022c-1.726,0-3.129,1.405-3.129,3.129c0,1.725,1.403,3.127,3.129,3.127s3.129-1.403,3.129-3.127
	C18.534,36.427,17.131,35.022,15.405,35.022L15.405,35.022z M15.405,43.204c-2.786,0-5.052-2.266-5.052-5.052
	c0-2.786,2.266-5.051,5.052-5.051c2.785,0,5.052,2.265,5.052,5.051C20.457,40.938,18.19,43.204,15.405,43.204L15.405,43.204z
	 M24.729,43.017c-0.222,0-0.444-0.077-0.626-0.233c-0.403-0.347-0.449-0.953-0.103-1.356l5.038-5.866v-5.198
	c0-0.531,0.43-0.961,0.961-0.961s0.962,0.43,0.962,0.961v5.196L36,41.428c0.346,0.403,0.3,1.011-0.103,1.356
	c-0.182,0.156-0.404,0.233-0.626,0.233c-0.271,0-0.539-0.114-0.73-0.334L30,37.394l-4.542,5.289
	C25.269,42.903,24.999,43.017,24.729,43.017L24.729,43.017z M37.288,26.899H22.723c-0.531,0-0.961-0.43-0.961-0.961V18.26
	c0-0.414,0.265-0.782,0.658-0.912l4.73-1.572c0.442-0.146,0.927,0.045,1.148,0.455L30,19.375l1.701-3.143
	c0.221-0.411,0.707-0.601,1.148-0.455l4.73,1.572c0.394,0.13,0.658,0.499,0.658,0.912l0.001,7.53
	c0.007,0.048,0.011,0.098,0.011,0.148C38.25,26.47,37.82,26.899,37.288,26.899L37.288,26.899z M23.684,24.977h12.632v-6.022
	l-3.308-1.099l-2.162,3.997c-0.168,0.311-0.493,0.504-0.846,0.504s-0.678-0.193-0.846-0.504l-2.162-3.997l-3.309,1.099V24.977
	L23.684,24.977z M30,15.103c-2.785,0-5.052-2.266-5.052-5.051C24.948,7.267,27.215,5,30,5c2.786,0,5.052,2.267,5.052,5.052
	C35.052,12.837,32.786,15.103,30,15.103L30,15.103z M30,6.922c-1.726,0-3.129,1.404-3.129,3.129S28.274,13.18,30,13.18
	s3.129-1.403,3.129-3.128S31.726,6.922,30,6.922L30,6.922z M51.873,55H37.317c-0.531,0-0.962-0.432-0.962-0.962v-7.677
	c0-0.414,0.266-0.783,0.658-0.913l4.731-1.572c0.441-0.146,0.928,0.044,1.148,0.455l1.701,3.143l1.701-3.143
	c0.222-0.411,0.706-0.601,1.148-0.455l4.73,1.572c0.394,0.13,0.659,0.499,0.659,0.913v7.677C52.834,54.568,52.402,55,51.873,55
	L51.873,55z M38.279,53.075h12.632v-6.021l-3.308-1.099l-2.163,3.997c-0.168,0.309-0.493,0.503-0.846,0.503
	s-0.678-0.194-0.846-0.503l-2.162-3.997l-3.308,1.099V53.075L38.279,53.075z M44.595,43.204c-2.786,0-5.052-2.266-5.052-5.052
	c0-2.786,2.266-5.051,5.052-5.051s5.053,2.265,5.053,5.051C49.647,40.938,47.381,43.204,44.595,43.204L44.595,43.204z
	 M44.595,35.022c-1.726,0-3.129,1.405-3.129,3.129c0,1.725,1.403,3.127,3.129,3.127s3.13-1.403,3.13-3.127
	C47.725,36.427,46.32,35.022,44.595,35.022L44.595,35.022z M22.694,55H8.128c-0.531,0-0.962-0.432-0.962-0.962v-7.677
	c0-0.414,0.266-0.783,0.658-0.913l4.731-1.572c0.442-0.146,0.927,0.044,1.148,0.455l1.7,3.143l1.702-3.143
	c0.222-0.411,0.706-0.601,1.148-0.455l4.73,1.572c0.394,0.13,0.658,0.499,0.658,0.913v7.529c0.008,0.048,0.012,0.097,0.012,0.147
	C23.655,54.568,23.226,55,22.694,55L22.694,55z M9.089,53.075h12.633l-0.001-6.021l-3.307-1.099l-2.164,3.997
	c-0.168,0.309-0.492,0.503-0.846,0.503c-0.353,0-0.677-0.194-0.845-0.503l-2.163-3.997l-3.308,1.099V53.075L9.089,53.075z"/>
</svg>
