<?xml version="1.0" encoding="utf-8"?>
<!-- Generator: Adobe Illustrator 16.0.5, SVG Export Plug-In . SVG Version: 6.00 Build 0)  -->
<!DOCTYPE svg PUBLIC "-//W3C//DTD SVG 1.1//EN" "http://www.w3.org/Graphics/SVG/1.1/DTD/svg11.dtd">
<svg version="1.1" id="PICTOS-MAIN-SECTION" xmlns="http://www.w3.org/2000/svg" xmlns:xlink="http://www.w3.org/1999/xlink"
	 x="0px" y="0px" width="60px" height="60px" viewBox="0 0 60 60" enable-background="new 0 0 60 60" xml:space="preserve">
<path fill="#FFFFFF" d="M51.073,35.756H8.925C6.761,35.756,5,33.996,5,31.833V10.374C5,8.21,6.761,6.448,8.925,6.448h42.148
	C53.239,6.448,55,8.21,55,10.374v21.458C55,33.996,53.239,35.756,51.073,35.756L51.073,35.756z M8.925,8.261
	c-1.166,0-2.113,0.948-2.113,2.113v21.458c0,1.165,0.947,2.112,2.113,2.112h42.148c1.167,0,2.114-0.947,2.114-2.112V10.374
	c0-1.165-0.947-2.113-2.114-2.113H8.925L8.925,8.261z M50.32,31.983H9.68c-0.5,0-0.906-0.405-0.906-0.906V11.129
	c0-0.501,0.406-0.906,0.906-0.906H50.32c0.5,0,0.905,0.405,0.905,0.906v19.948C51.226,31.578,50.82,31.983,50.32,31.983
	L50.32,31.983z M10.586,30.171h38.827V12.035H10.586V30.171L10.586,30.171z M19.308,51.738v-4.176c0-0.159-0.128-0.287-0.286-0.287
	h-8.234c-0.158,0-0.287,0.128-0.287,0.287v4.176H19.308L19.308,51.738z M34.403,51.738v-4.176c0-0.159-0.129-0.287-0.287-0.287
	h-8.233c-0.158,0-0.286,0.128-0.286,0.287v4.176H34.403L34.403,51.738z M49.499,51.738l-0.001-4.176
	c0-0.159-0.129-0.287-0.286-0.287h-8.233c-0.158,0-0.287,0.128-0.287,0.287v4.176H49.499L49.499,51.738z M26.855,45.464v-4.139
	c0-0.157-0.128-0.286-0.286-0.286h-8.234c-0.159,0-0.286,0.129-0.286,0.286v4.139h0.973c1.157,0,2.098,0.94,2.098,2.099v4.176h2.665
	l0-4.176c0-1.158,0.941-2.099,2.098-2.099H26.855L26.855,45.464z M31.332,45.469v-4.144c0-1.157,0.941-2.098,2.098-2.098h8.234
	c1.157,0,2.099,0.941,2.099,2.098v4.139h5.449c1.157,0,2.099,0.94,2.099,2.099v4.176h2.783c0.501,0,0.906,0.407,0.906,0.907
	s-0.405,0.906-0.906,0.906H5.906c-0.5,0-0.906-0.406-0.906-0.906s0.406-0.907,0.906-0.907H8.69l-0.001-4.176
	c0-1.158,0.941-2.099,2.099-2.099l5.449,0.005v-4.144c0-1.157,0.941-2.098,2.099-2.098h8.234c1.157,0,2.098,0.941,2.098,2.098v4.144
	H31.332L31.332,45.469z M41.95,45.464v-4.139c0-0.157-0.128-0.286-0.286-0.286H33.43c-0.157,0-0.285,0.129-0.285,0.286v4.139h0.972
	c1.157,0,2.099,0.94,2.099,2.099v4.176h2.665l-0.001-4.176c0-1.158,0.941-2.099,2.1-2.099H41.95L41.95,45.464z"/>
</svg>
