<?xml version="1.0" encoding="utf-8"?>
<!-- Generator: Adobe Illustrator 16.0.5, SVG Export Plug-In . SVG Version: 6.00 Build 0)  -->
<!DOCTYPE svg PUBLIC "-//W3C//DTD SVG 1.1//EN" "http://www.w3.org/Graphics/SVG/1.1/DTD/svg11.dtd">
<svg version="1.1" id="PICTOS-MAIN-SECTION" xmlns="http://www.w3.org/2000/svg" xmlns:xlink="http://www.w3.org/1999/xlink"
	 x="0px" y="0px" width="60px" height="60px" viewBox="0 0 60 60" enable-background="new 0 0 60 60" xml:space="preserve">
<path fill="#FFFFFF" d="M50.9,43.706c-1.882,2.859-4.334,5.312-7.193,7.193h0.972c3.431,0,6.222-2.791,6.222-6.221V43.706
	L50.9,43.706z M43.707,9.102c2.859,1.881,5.312,4.333,7.193,7.193v-0.973c0-3.43-2.791-6.22-6.222-6.22H43.707L43.707,9.102z
	 M9.102,16.29c1.883-2.857,4.332-5.308,7.191-7.188h-0.972c-3.429,0-6.22,2.79-6.22,6.22V16.29L9.102,16.29z M16.292,50.898
	c-2.858-1.881-5.308-4.33-7.19-7.188v0.967c0,3.43,2.791,6.221,6.22,6.221H16.292L16.292,50.898z M29.999,55
	c-3.633,0-7.087-0.777-10.203-2.178h-4.475c-4.489,0-8.142-3.654-8.142-8.145v-4.468C5.778,37.09,5,33.634,5,30
	c0-3.634,0.778-7.09,2.18-10.209v-4.47c0-4.491,3.652-8.144,8.142-8.144l4.475,0C22.913,5.779,26.366,5,29.999,5
	s7.088,0.779,10.205,2.179l4.475,0c4.49,0,8.146,3.652,8.146,8.144v4.477C54.222,22.915,55,26.368,55,30
	c0,3.631-0.778,7.084-2.176,10.201v4.476c0,4.491-3.655,8.145-8.146,8.145h-4.475C37.087,54.223,33.633,55,29.999,55L29.999,55z
	 M29.999,17.436c-6.926,0-12.561,5.636-12.561,12.564c0,6.926,5.635,12.561,12.561,12.561c6.928,0,12.563-5.635,12.563-12.561
	C42.562,23.072,36.927,17.436,29.999,17.436L29.999,17.436z M42.492,22.675l6.198-6.198c-1.438-1.982-3.186-3.728-5.168-5.167
	l-6.196,6.196C39.456,18.762,41.238,20.544,42.492,22.675L42.492,22.675z M24.489,43.396l-6.377,6.377
	c3.474,2.098,7.543,3.305,11.887,3.305c4.346,0,8.415-1.207,11.888-3.305l-6.377-6.377c-1.699,0.701-3.561,1.089-5.511,1.089
	C28.05,44.486,26.189,44.097,24.489,43.396L24.489,43.396z M17.508,37.326l-6.197,6.198c1.438,1.982,3.185,3.729,5.166,5.166
	l6.197-6.198C20.544,41.238,18.762,39.456,17.508,37.326L17.508,37.326z M16.603,24.491l-6.376-6.378
	C8.13,21.587,6.923,25.655,6.923,30c0,4.344,1.207,8.413,3.304,11.887l6.376-6.377c-0.7-1.699-1.087-3.56-1.087-5.509
	C15.516,28.051,15.902,26.19,16.603,24.491L16.603,24.491z M22.674,17.507l-6.197-6.196c-1.982,1.439-3.728,3.184-5.166,5.167
	l6.197,6.197C18.762,20.544,20.544,18.761,22.674,17.507L22.674,17.507z M18.112,10.227l6.377,6.376
	c1.699-0.703,3.561-1.09,5.51-1.09c1.951,0,3.813,0.387,5.512,1.09l6.378-6.376c-3.475-2.098-7.544-3.304-11.89-3.304
	C25.655,6.923,21.586,8.129,18.112,10.227L18.112,10.227z M43.396,35.51l6.379,6.377c2.096-3.474,3.304-7.542,3.304-11.887
	c0-4.345-1.208-8.414-3.304-11.888l-6.379,6.378c0.702,1.699,1.089,3.56,1.089,5.51C44.484,31.95,44.098,33.811,43.396,35.51
	L43.396,35.51z M48.69,43.523l-6.198-6.198c-1.254,2.13-3.037,3.913-5.167,5.167l6.197,6.197
	C45.505,47.252,47.251,45.505,48.69,43.523L48.69,43.523z"/>
</svg>
