<?xml version="1.0" encoding="utf-8"?>
<!-- Generator: Adobe Illustrator 16.0.5, SVG Export Plug-In . SVG Version: 6.00 Build 0)  -->
<!DOCTYPE svg PUBLIC "-//W3C//DTD SVG 1.1//EN" "http://www.w3.org/Graphics/SVG/1.1/DTD/svg11.dtd">
<svg version="1.1" id="PICTOS-MAIN-SECTION" xmlns="http://www.w3.org/2000/svg" xmlns:xlink="http://www.w3.org/1999/xlink"
	 x="0px" y="0px" width="28.524px" height="46.032px" viewBox="0 0 28.524 46.032" enable-background="new 0 0 28.524 46.032"
	 xml:space="preserve">
<g>
	<path fill="#6D6D6D" d="M14.3,2.582c7.467,0,11.541,7.2,11.541,10.898c0,3.251-3.038,9.221-4.499,12.09
		c-0.595,1.169-0.913,1.798-1.073,2.232c-0.524,1.427-0.563,1.912-0.53,2.84c0.006,0.146,0.011,0.314,0.011,0.524
		c-0.035,0.21-0.262,0.637-0.553,1.066H9.244c-0.291-0.43-0.518-0.856-0.554-1.066c0.001-0.21,0.006-0.379,0.012-0.524
		c0.033-0.928-0.006-1.413-0.53-2.841c-0.159-0.433-0.478-1.063-1.072-2.23c-1.46-2.87-4.499-8.839-4.499-12.091
		c0-3.699,4.073-10.898,11.54-10.898H14.3 M14.3,0.658h-0.159c-8.577,0-13.464,8.014-13.464,12.823s5.129,13.464,5.69,14.987
		c0.561,1.523,0.399,1.523,0.399,2.725c0,1.203,1.523,2.965,1.523,2.965h11.859c0,0,1.524-1.763,1.524-2.965
		c0-1.201-0.16-1.201,0.4-2.725c0.562-1.523,5.69-10.179,5.69-14.987S22.876,0.658,14.3,0.658L14.3,0.658z"/>
	<path fill="#6D6D6D" d="M19.929,38.112c-0.84,0.199-3.917,0.688-5.701,0.904c-2.018,0.242-4.439,0.355-4.994,0.355
		c-0.556,0-0.635,0.498-0.675,0.783c-0.039,0.285,0.159,0.926,0.556,0.926c2.102,0,3.144-0.137,5.132-0.355
		c0.656-0.072,5.104-0.748,5.431-0.932c0.351-0.195,0.498-0.377,0.498-0.947S20.087,38.075,19.929,38.112z"/>
	<path fill="#6D6D6D" d="M9.152,42.375c-0.171,0.26,1.597,1.615,1.697,1.615c0.099,0,0.099,0,0.099,0s1.071,0.928,1.17,1.219
		c0.1,0.289,0.1,0.232,0.297,0.367s3.865,0.078,4.005,0c0.139-0.078,0.06-0.271,0.139-0.387c0.08-0.117,1.288-1.156,1.348-1.273
		c0.06-0.119,0.08-0.139,0.219-0.215c0.138-0.078,1.964-2.232,1.962-2.436c-0.002-0.109,0.02-0.217-0.198-0.178
		c0,0-0.709,0.189-2.505,0.51c-1.836,0.322-3.123,0.496-4.921,0.631C11.639,42.29,9.202,42.299,9.152,42.375z"/>
	<path fill="#6D6D6D" d="M8.709,35.555c0,0-0.257,1.906-0.144,2.041s-0.002,0.363,1.25,0.387c1.272,0.021,3.064-0.135,4.561-0.281
		c1.967-0.191,5.245-0.725,5.453-0.777c0.209-0.055,0.3-0.094,0.357-0.41c0.06-0.314-0.327-0.959-0.327-0.959H8.709z"/>
</g>
</svg>
