<?xml version="1.0" encoding="utf-8"?>
<!-- Generator: Adobe Illustrator 16.0.5, SVG Export Plug-In . SVG Version: 6.00 Build 0)  -->
<!DOCTYPE svg PUBLIC "-//W3C//DTD SVG 1.1//EN" "http://www.w3.org/Graphics/SVG/1.1/DTD/svg11.dtd">
<svg version="1.1" id="PICTOS-MAIN-SECTION" xmlns="http://www.w3.org/2000/svg" xmlns:xlink="http://www.w3.org/1999/xlink"
	 x="0px" y="0px" width="60px" height="60px" viewBox="0 0 60 60" enable-background="new 0 0 60 60" xml:space="preserve">
<g>
	<path fill="#FFFFFF" d="M30.881,36.725l-2.583-1.069c-0.555-0.23-0.988-0.663-1.218-1.219c-0.23-0.555-0.23-1.167,0-1.722
		l1.07-2.583l-6.326-15.274L6.475,21.215l9.911,23.929l15.349-6.358L30.881,36.725L30.881,36.725z M28.843,28.46l3.131-7.561
		c0.351-0.845,1.167-1.39,2.081-1.39c0.296,0,0.586,0.058,0.86,0.171l18.696,7.744c1.146,0.475,1.691,1.794,1.217,2.941
		l-4.894,11.815c-0.351,0.844-1.166,1.389-2.08,1.389l0,0c-0.296,0-0.586-0.058-0.86-0.171l-14.441-5.982l0.609,1.47
		c0.135,0.326-0.021,0.7-0.347,0.835l-16.53,6.847c-0.079,0.033-0.162,0.049-0.245,0.049c-0.083,0-0.167-0.016-0.245-0.049
		c-0.156-0.064-0.281-0.189-0.346-0.346l-10.4-25.11c-0.065-0.157-0.065-0.333,0-0.489c0.065-0.157,0.189-0.281,0.346-0.346
		l16.53-6.847c0.326-0.136,0.701,0.02,0.835,0.346L28.843,28.46 M34.055,20.789c-0.395,0-0.747,0.236-0.898,0.601l-4.894,11.815
		c-0.099,0.239-0.099,0.503,0,0.743c0.1,0.24,0.286,0.427,0.526,0.526l18.695,7.744c0.488,0.201,1.069-0.044,1.27-0.525
		l4.894-11.815c0.205-0.496-0.03-1.065-0.524-1.27l-18.696-7.745C34.307,20.814,34.182,20.789,34.055,20.789L34.055,20.789z
		 M24.894,32.319l-0.913,0.378c0.007,0.451-0.02,0.882-0.081,1.286C24.323,33.476,24.655,32.914,24.894,32.319L24.894,32.319z
		 M13.317,27.682l0.912-0.378c-0.007-0.451,0.02-0.882,0.081-1.286C13.888,26.525,13.556,27.087,13.317,27.682L13.317,27.682z
		 M17.918,33.824l1.774-0.735l-0.934-2.253l-2.132,0.884C17.015,32.538,17.457,33.241,17.918,33.824L17.918,33.824z M20.875,32.599
		l1.774-0.735c-0.091-0.772-0.286-1.585-0.576-2.401l-2.132,0.883L20.875,32.599L20.875,32.599z M22.697,33.229l-1.333,0.552
		l0.654,1.58c0.354-0.414,0.587-1.073,0.663-1.904L22.697,33.229L22.697,33.229z M20.182,34.27l-1.331,0.551
		c0.713,0.635,1.416,0.986,1.986,1.032L20.182,34.27L20.182,34.27z M15.512,26.772l1.335-0.553l-0.655-1.581
		c-0.355,0.414-0.588,1.074-0.664,1.905L15.512,26.772L15.512,26.772z M18.029,25.73l1.329-0.55
		c-0.712-0.635-1.414-0.985-1.985-1.032L18.029,25.73L18.029,25.73z M20.292,26.177l-1.773,0.734l0.933,2.253l2.131-0.883
		C21.195,27.463,20.753,26.76,20.292,26.177L20.292,26.177z M17.337,27.401l-1.776,0.735c0.091,0.771,0.286,1.585,0.577,2.401
		l2.132-0.883L17.337,27.401L17.337,27.401z M19.108,37.513c-3.05,0-5.775-1.821-6.942-4.638c-0.768-1.853-0.768-3.895,0-5.749
		s2.211-3.297,4.065-4.064c0.924-0.381,1.888-0.573,2.872-0.573c3.05,0,5.775,1.821,6.941,4.638c0.768,1.854,0.768,3.895,0,5.749
		c-0.766,1.849-2.205,3.29-4.052,4.06C21.061,37.32,20.095,37.513,19.108,37.513L19.108,37.513z M21.559,24.268
		c-0.589-0.252-1.222-0.414-1.879-0.475c0.329,0.243,0.653,0.528,0.967,0.852L21.559,24.268L21.559,24.268z M24.588,27.037
		c-0.416-0.771-0.98-1.433-1.65-1.956l-1.426,0.59c0.463,0.627,0.889,1.341,1.254,2.12L24.588,27.037L24.588,27.037z M25.292,30.77
		c0.107-0.852,0.036-1.718-0.214-2.551l-1.822,0.755c0.29,0.801,0.496,1.606,0.614,2.385L25.292,30.77L25.292,30.77z M16.652,35.733
		c0.589,0.251,1.221,0.414,1.877,0.474c-0.329-0.242-0.652-0.528-0.966-0.852L16.652,35.733L16.652,35.733z M13.623,32.963
		c0.416,0.771,0.98,1.434,1.65,1.956l1.426-0.59c-0.463-0.627-0.889-1.341-1.254-2.12L13.623,32.963L13.623,32.963z M12.918,29.231
		c-0.107,0.852-0.036,1.718,0.214,2.551l1.822-0.754c-0.29-0.802-0.496-1.607-0.614-2.385L12.918,29.231L12.918,29.231z
		 M47.8,37.973c-0.081,0-0.164-0.016-0.244-0.049l-6.164-2.553c-0.326-0.135-0.481-0.509-0.347-0.835
		c0.136-0.327,0.51-0.482,0.836-0.346l6.164,2.553c0.327,0.135,0.481,0.509,0.346,0.835C48.289,37.825,48.051,37.973,47.8,37.973
		L47.8,37.973z M49.892,32.924c-0.082,0-0.165-0.016-0.244-0.048l-6.164-2.553c-0.326-0.135-0.481-0.51-0.347-0.836
		c0.136-0.326,0.511-0.481,0.836-0.346l6.164,2.553c0.325,0.135,0.48,0.509,0.346,0.836C50.38,32.775,50.143,32.924,49.892,32.924
		L49.892,32.924z M48.846,35.449c-0.082,0-0.164-0.016-0.244-0.049l-6.164-2.553c-0.326-0.135-0.481-0.509-0.346-0.835
		c0.135-0.326,0.509-0.481,0.835-0.346l6.164,2.553c0.326,0.136,0.481,0.51,0.346,0.836C49.335,35.3,49.096,35.449,48.846,35.449
		L48.846,35.449z"/>
	<g>
		<path fill="#FFFFFF" d="M37.706,36.138c-0.678,0.105-1.703,0.048-2.797-0.467c-1.342-0.632-2.292-1.709-2.667-3.061
			c-0.303-0.993-0.264-2.148,0.148-3.411l-1.027-0.484l0.384-0.813l0.944,0.446c0.039-0.084,0.078-0.167,0.116-0.248
			c0.126-0.267,0.259-0.507,0.385-0.732l-0.978-0.46l0.392-0.828l1.092,0.515c0.748-1.066,1.696-1.793,2.679-2.16
			c1.26-0.479,2.57-0.469,3.93,0.171c0.978,0.461,1.606,1.103,1.954,1.569l-0.847,0.937c-0.299-0.444-0.894-0.987-1.64-1.338
			c-0.893-0.422-1.771-0.452-2.615-0.121c-0.723,0.247-1.405,0.836-1.986,1.635l4.623,2.179l-0.39,0.829l-4.771-2.25
			c-0.118,0.208-0.253,0.448-0.363,0.681c-0.047,0.1-0.085,0.182-0.141,0.298l4.807,2.265l-0.384,0.813l-4.689-2.211
			c-0.319,1.023-0.323,1.892-0.11,2.601c0.309,0.935,0.988,1.64,1.882,2.061c0.879,0.414,1.798,0.442,2.279,0.408L37.706,36.138z"/>
	</g>
</g>
</svg>
