<?xml version="1.0" encoding="utf-8"?>
<!-- Generator: Adobe Illustrator 16.0.5, SVG Export Plug-In . SVG Version: 6.00 Build 0)  -->
<!DOCTYPE svg PUBLIC "-//W3C//DTD SVG 1.1//EN" "http://www.w3.org/Graphics/SVG/1.1/DTD/svg11.dtd">
<svg version="1.1" id="PICTOS-MAIN-SECTION" xmlns="http://www.w3.org/2000/svg" xmlns:xlink="http://www.w3.org/1999/xlink"
	 x="0px" y="0px" width="60px" height="60px" viewBox="0 0 60 60" enable-background="new 0 0 60 60" xml:space="preserve">
<path fill="#FFFFFF" d="M20.903,18.284h18.193C38.669,13.643,34.752,9.997,30,9.997S21.332,13.643,20.903,18.284L20.903,18.284z
	 M42.543,49.373h1.67V36.539h-1.67V49.373L42.543,49.373z M36.835,26.09l2.3,1.232v-7.345h-2.3V26.09L36.835,26.09z M32.843,23.948
	l2.299,1.233v-5.204h-2.299V23.948L32.843,23.948z M28.85,23.041l0.75-0.402c0.25-0.134,0.55-0.135,0.8,0l0.75,0.401v-3.063H28.85
	V23.041L28.85,23.041z M24.857,25.182l2.299-1.233v-3.971h-2.299V25.182L24.857,25.182z M20.864,27.323l2.3-1.233v-6.112h-2.3
	V27.323L20.864,27.323z M14.094,49.373V36.539H7.051c-0.388,0-0.726-0.264-0.821-0.641c-0.094-0.376,0.079-0.769,0.421-0.952
	l12.521-6.715v-9.101c0-5.686,4.405-10.361,9.982-10.794v-2.49C29.153,5.379,29.533,5,30,5c0.468,0,0.847,0.379,0.847,0.847l0,2.49
	c5.577,0.433,9.982,5.108,9.982,10.794l-0.001,9.1l12.521,6.716c0.343,0.184,0.516,0.576,0.422,0.952
	c-0.095,0.377-0.434,0.641-0.821,0.641h-7.044v12.834h7.044c0.468,0,0.847,0.379,0.847,0.847v3.934c0,0.468-0.379,0.847-0.847,0.847
	H7.051c-0.468,0-0.847-0.379-0.847-0.847V50.22c0-0.468,0.379-0.847,0.847-0.847H14.094L14.094,49.373z M15.787,49.373h1.669V36.539
	h-1.669V49.373L15.787,49.373z M23.014,49.373V36.539H19.15v12.834H23.014L23.014,49.373z M24.707,49.373h1.668V36.539h-1.668
	V49.373L24.707,49.373z M36.986,36.539v12.834h3.862V36.539H36.986L36.986,36.539z M49.58,34.846L30,24.345L10.42,34.846H49.58
	L49.58,34.846z M31.931,49.373V36.539h-3.863v12.834H31.931L31.931,49.373z M7.897,51.066v2.24h44.206v-2.24H7.897L7.897,51.066z
	 M33.625,49.373h1.668V36.539h-1.668V49.373L33.625,49.373z"/>
</svg>
