<?xml version="1.0" encoding="utf-8"?>
<!-- Generator: Adobe Illustrator 16.0.5, SVG Export Plug-In . SVG Version: 6.00 Build 0)  -->
<!DOCTYPE svg PUBLIC "-//W3C//DTD SVG 1.1//EN" "http://www.w3.org/Graphics/SVG/1.1/DTD/svg11.dtd">
<svg version="1.1" id="PICTOS-MAIN-SECTION" xmlns="http://www.w3.org/2000/svg" xmlns:xlink="http://www.w3.org/1999/xlink"
	 x="0px" y="0px" width="60px" height="60px" viewBox="0 0 60 60" enable-background="new 0 0 60 60" xml:space="preserve">
<path fill="#FFFFFF" d="M41.654,42.979c-1.27,3.913-3.1,7.103-5.307,9.209c5.24-1.501,9.721-4.812,12.722-9.209H41.654
	L41.654,42.979z M23.652,52.188c-2.207-2.106-4.037-5.296-5.306-9.209h-7.415C13.932,47.376,18.412,50.687,23.652,52.188
	L23.652,52.188z M30,55C16.205,54.99,5,43.779,5,30C5,16.224,16.205,5.01,29.98,5C43.789,5.006,55,16.217,55,30
	c0,13.776-11.205,24.987-24.98,25H30L30,55z M30.963,42.979v10.01c3.515-0.596,6.648-4.46,8.593-10.01H30.963L30.963,42.979z
	 M29.037,52.988v-10.01h-8.594C22.389,48.528,25.521,52.393,29.037,52.988L29.037,52.988z M16.445,30.96H6.94
	c0.15,3.646,1.152,7.073,2.806,10.094h8.041C16.992,38.004,16.517,34.593,16.445,30.96L16.445,30.96z M29.037,30.96H18.366
	c0.085,3.62,0.603,7.057,1.465,10.094h9.206V30.96L29.037,30.96z M41.635,30.96H30.963v10.094h9.207
	C41.029,38.018,41.549,34.58,41.635,30.96L41.635,30.96z M53.054,30.96h-9.499c-0.074,3.633-0.541,7.044-1.342,10.094h8.038
	C51.907,38.034,52.903,34.606,53.054,30.96L53.054,30.96z M41.654,17.015h7.415c-3.001-4.395-7.481-7.705-12.722-9.206
	C38.555,9.916,40.385,13.105,41.654,17.015L41.654,17.015z M30.963,17.015h8.593c-1.945-5.547-5.078-9.411-8.593-10.013V17.015
	L30.963,17.015z M20.443,17.015h8.594V7.002C25.521,7.604,22.389,11.468,20.443,17.015L20.443,17.015z M10.931,17.015h7.415
	c1.27-3.91,3.099-7.1,5.306-9.206C18.412,9.31,13.932,12.621,10.931,17.015L10.931,17.015z M17.787,18.942H9.752
	c-1.66,3.021-2.663,6.449-2.813,10.095h9.505C16.517,25.404,16.992,21.989,17.787,18.942L17.787,18.942z M29.037,18.942h-9.206
	c-0.862,3.037-1.38,6.475-1.465,10.095h10.671V18.942L29.037,18.942z M40.17,18.942h-9.207v10.095h10.671
	C41.549,25.417,41.029,21.979,40.17,18.942L40.17,18.942z M50.247,18.942h-8.034c0.801,3.047,1.268,6.462,1.342,10.095h9.499
	C52.903,25.391,51.907,21.963,50.247,18.942L50.247,18.942z"/>
</svg>
