<?xml version="1.0" encoding="utf-8"?>
<!-- Generator: Adobe Illustrator 16.0.5, SVG Export Plug-In . SVG Version: 6.00 Build 0)  -->
<!DOCTYPE svg PUBLIC "-//W3C//DTD SVG 1.1//EN" "http://www.w3.org/Graphics/SVG/1.1/DTD/svg11.dtd">
<svg version="1.1" id="PICTOS-MAIN-SECTION" xmlns="http://www.w3.org/2000/svg" xmlns:xlink="http://www.w3.org/1999/xlink"
	 x="0px" y="0px" width="60px" height="60px" viewBox="0 0 60 60" enable-background="new 0 0 60 60" xml:space="preserve">
<path fill="#FFFFFF" d="M39.389,42.423h-2.507l4.411,10.65c0.032,0.078,0.106,0.086,0.16,0.065l1.913-0.794
	c0.079-0.097,0.079-0.128,0.066-0.158L39.389,42.423L39.389,42.423z M9.321,40.57h41.359V13.425H9.321V40.57L9.321,40.57z
	 M31.158,11.573v-4.6c0-0.067-0.055-0.121-0.121-0.121h-2.072c-0.067,0-0.122,0.054-0.122,0.121v4.6H31.158L31.158,11.573z
	 M25.123,42.423l-4.704,11.358C20.112,54.521,19.397,55,18.595,55c-0.26,0-0.513-0.051-0.754-0.15l-1.915-0.794
	c-0.487-0.201-0.866-0.58-1.068-1.066c-0.201-0.487-0.202-1.024,0-1.512l3.75-9.055H8.395c-0.511,0-0.926-0.414-0.926-0.926V12.499
	c0-0.512,0.415-0.926,0.926-0.926h18.597v-4.6C26.991,5.885,27.877,5,28.965,5h2.072c1.088,0,1.974,0.885,1.974,1.973l-0.001,4.6
	h18.596c0.512,0,0.926,0.414,0.926,0.926v28.998c0,0.512-0.414,0.926-0.926,0.926H41.394l3.75,9.055
	c0.202,0.487,0.201,1.024,0,1.512c-0.202,0.486-0.582,0.865-1.068,1.066l-1.914,0.794c-0.241,0.1-0.496,0.15-0.755,0.15
	c-0.802,0-1.518-0.479-1.824-1.219l-4.704-11.358H25.123L25.123,42.423z M20.612,42.423l-4.044,9.764
	c-0.013,0.03-0.013,0.062,0,0.093l2.026,0.869c0.038,0,0.091-0.02,0.113-0.075l4.41-10.65H20.612L20.612,42.423z M47.416,38.233
	h-34.83c-0.512,0-0.927-0.416-0.927-0.927V16.69c0-0.512,0.415-0.927,0.927-0.927h34.83c0.511,0,0.926,0.416,0.926,0.927v20.616
	C48.342,37.817,47.927,38.233,47.416,38.233L47.416,38.233z M13.512,36.381H46.49V17.617H13.512V36.381L13.512,36.381z"/>
</svg>
