<?xml version="1.0" encoding="utf-8"?>
<!-- Generator: Adobe Illustrator 16.0.5, SVG Export Plug-In . SVG Version: 6.00 Build 0)  -->
<!DOCTYPE svg PUBLIC "-//W3C//DTD SVG 1.1//EN" "http://www.w3.org/Graphics/SVG/1.1/DTD/svg11.dtd">
<svg version="1.1" id="PICTOS-MAIN-SECTION" xmlns="http://www.w3.org/2000/svg" xmlns:xlink="http://www.w3.org/1999/xlink"
	 x="0px" y="0px" width="60px" height="60px" viewBox="0 0 60 60" enable-background="new 0 0 60 60" xml:space="preserve">
<path fill="#FFFFFF" d="M46.791,47.377h1.965c0.904,0,1.638-0.735,1.638-1.638v-7.1c0-0.903-0.733-1.638-1.638-1.638h-1.965V47.377
	L46.791,47.377z M48.756,49.191h-1.999c-0.297,2.47-2.404,4.391-4.953,4.391H15.794c-2.75,0-4.988-2.238-4.988-4.988v-1.228H8.699
	c-0.501,0-0.907-0.405-0.907-0.907c0-0.5,0.406-0.907,0.907-0.907h2.107v-3.67H8.699c-0.501,0-0.907-0.407-0.907-0.909
	c0-0.499,0.406-0.906,0.907-0.906h2.107v-3.674H8.699c-0.501,0-0.907-0.405-0.907-0.906s0.406-0.908,0.907-0.908h2.107v-3.671H8.699
	c-0.501,0-0.907-0.407-0.907-0.909c0-0.5,0.406-0.907,0.907-0.907h2.107V25.42H8.699c-0.501,0-0.907-0.407-0.907-0.907
	c0-0.501,0.406-0.908,0.907-0.908h2.107v-3.671H8.699c-0.501,0-0.907-0.407-0.907-0.909c0-0.5,0.406-0.907,0.907-0.907h2.107v-3.673
	H8.699c-0.501,0-0.907-0.405-0.907-0.907c0-0.5,0.406-0.907,0.907-0.907h2.107v-1.226c0-2.749,2.238-4.988,4.988-4.988h26.009
	c2.549,0,4.656,1.921,4.953,4.391h1.999c1.904,0,3.452,1.549,3.452,3.452v7.1c0,1.006-0.433,1.913-1.122,2.544
	c0.689,0.631,1.122,1.538,1.122,2.544v7.1c0,1.007-0.433,1.915-1.122,2.547c0.689,0.631,1.122,1.538,1.122,2.544v7.1
	C52.208,47.643,50.66,49.191,48.756,49.191L48.756,49.191z M44.979,11.406c0-1.75-1.424-3.172-3.175-3.172H15.794
	c-1.75,0-3.174,1.423-3.174,3.172v1.226h2.107c0.501,0,0.908,0.407,0.908,0.907c0,0.501-0.407,0.907-0.908,0.907H12.62v3.673h2.107
	c0.501,0,0.908,0.407,0.908,0.907c0,0.501-0.407,0.909-0.908,0.909H12.62v3.671h2.107c0.501,0,0.908,0.407,0.908,0.908
	c0,0.5-0.407,0.907-0.908,0.907H12.62v3.671h2.107c0.501,0,0.908,0.407,0.908,0.907c0,0.502-0.407,0.909-0.908,0.909H12.62v3.671
	h2.107c0.501,0,0.908,0.407,0.908,0.908s-0.407,0.906-0.908,0.906H12.62v3.674h2.107c0.501,0,0.908,0.407,0.908,0.906
	c0,0.502-0.407,0.909-0.908,0.909H12.62v3.67h2.107c0.501,0,0.908,0.407,0.908,0.907c0,0.502-0.407,0.907-0.908,0.907H12.62v1.228
	c0,1.749,1.424,3.172,3.174,3.172h26.009c1.751,0,3.175-1.423,3.175-3.172V11.406L44.979,11.406z M46.791,35.188h1.965
	c0.904,0,1.638-0.735,1.638-1.64v-7.1c0-0.904-0.733-1.638-1.638-1.638h-1.965V35.188L46.791,35.188z M46.791,22.998h1.965
	c0.904,0,1.638-0.734,1.638-1.637v-7.1c0-0.902-0.733-1.638-1.638-1.638h-1.965V22.998L46.791,22.998z"/>
</svg>
