<?xml version="1.0" encoding="utf-8"?>
<!-- Generator: Adobe Illustrator 16.0.5, SVG Export Plug-In . SVG Version: 6.00 Build 0)  -->
<!DOCTYPE svg PUBLIC "-//W3C//DTD SVG 1.1//EN" "http://www.w3.org/Graphics/SVG/1.1/DTD/svg11.dtd">
<svg version="1.1" id="PICTOS-MAIN-SECTION" xmlns="http://www.w3.org/2000/svg" xmlns:xlink="http://www.w3.org/1999/xlink"
	 x="0px" y="0px" width="60px" height="60px" viewBox="0 0 60 60" enable-background="new 0 0 60 60" xml:space="preserve">
<path fill="#FFFFFF" d="M26.405,46.34h-2.606v4.557h2.606V46.34L26.405,46.34z M32.859,24.484c0-4.277-3.48-7.756-7.757-7.756
	s-7.756,3.479-7.756,7.756v20.25h15.514V24.484L32.859,24.484z M43.456,14.909h-8.994v9.554v21.074c0,0.444-0.358,0.804-0.801,0.804
	h-5.652v5.358c0,0.442-0.359,0.803-0.802,0.803h-4.21c-0.442,0-0.802-0.36-0.802-0.803V46.34h-5.652
	c-0.442,0-0.801-0.359-0.801-0.804V24.484c0-5.161,4.199-9.361,9.361-9.361c3.224,0,6.072,1.638,7.757,4.126V8.303
	c0-0.443,0.358-0.802,0.802-0.802h9.795c0.442,0,0.803,0.359,0.803,0.802v5.803C44.259,14.549,43.898,14.909,43.456,14.909
	L43.456,14.909z M34.462,13.304h8.192V9.105h-8.192V13.304L34.462,13.304z M25.102,28.406c-2.042,0-3.704-1.662-3.704-3.704
	c0-2.042,1.662-3.704,3.704-3.704s3.704,1.662,3.704,3.704C28.806,26.745,27.144,28.406,25.102,28.406L25.102,28.406z
	 M25.102,22.603c-1.157,0-2.099,0.943-2.099,2.1c0,1.158,0.942,2.099,2.099,2.099c1.158,0,2.1-0.941,2.1-2.099
	C27.202,23.545,26.26,22.603,25.102,22.603L25.102,22.603z M29.857,42.452h-9.51c-0.444,0-0.802-0.36-0.802-0.803v-5.52
	c0-0.442,0.358-0.801,0.802-0.801h9.51c0.444,0,0.802,0.358,0.802,0.801v5.52C30.659,42.092,30.301,42.452,29.857,42.452
	L29.857,42.452z M21.149,40.848h7.905v-3.914h-7.905V40.848L21.149,40.848z"/>
</svg>
