<?xml version="1.0" encoding="utf-8"?>
<!-- Generator: Adobe Illustrator 16.0.5, SVG Export Plug-In . SVG Version: 6.00 Build 0)  -->
<!DOCTYPE svg PUBLIC "-//W3C//DTD SVG 1.1//EN" "http://www.w3.org/Graphics/SVG/1.1/DTD/svg11.dtd">
<svg version="1.1" id="PICTOS-MAIN-SECTION" xmlns="http://www.w3.org/2000/svg" xmlns:xlink="http://www.w3.org/1999/xlink"
	 x="0px" y="0px" width="60px" height="60px" viewBox="0 0 60 60" enable-background="new 0 0 60 60" xml:space="preserve">
<path fill="#FFFFFF" d="M35.363,15.272H23.813c-0.242,0-0.476,0.034-0.698,0.099c-0.823,0.239-1.473,0.89-1.712,1.712
	c-0.064,0.222-0.098,0.456-0.098,0.699v1.65v10.141c0,0.943,0.72,1.709,1.604,1.709c0.885,0,1.604-0.766,1.604-1.709v-5.959
	c0-0.21,0.084-0.413,0.234-0.562l2.678-2.678c0.149-0.149,0.351-0.233,0.563-0.233h4.738c0.211,0,0.413,0.084,0.562,0.233
	l9.073,9.072c0.804,0,1.528,0.294,2.063,0.828l0.263,0.263l2.973-2.973L35.363,15.272L35.363,15.272z M41.033,33.663l3.74,3.741
	c0.518,0.516,1.511,0.444,2.108-0.155c0.313-0.312,0.496-0.711,0.516-1.124c0.018-0.384-0.11-0.734-0.361-0.984l-3.74-3.742
	c-0.234-0.233-0.558-0.361-0.914-0.361c-0.431,0-0.867,0.187-1.195,0.516C40.563,32.177,40.493,33.124,41.033,33.663L41.033,33.663z
	 M37.645,37.05l3.74,3.741c0.519,0.518,1.511,0.444,2.109-0.153c0.623-0.624,0.693-1.571,0.154-2.11l-3.74-3.74
	c-0.234-0.233-0.559-0.362-0.914-0.362c-0.432,0-0.868,0.188-1.196,0.517C37.174,35.565,37.105,36.512,37.645,37.05L37.645,37.05z
	 M34.256,40.44l3.74,3.74c0.518,0.518,1.512,0.443,2.11-0.154c0.623-0.624,0.692-1.57,0.153-2.11l-3.74-3.74
	c-0.233-0.233-0.558-0.362-0.913-0.362c-0.432,0-0.868,0.188-1.196,0.517C33.786,38.955,33.717,39.9,34.256,40.44L34.256,40.44z
	 M32.217,41.202c-0.431,0-0.867,0.188-1.195,0.516c-0.624,0.625-0.692,1.57-0.154,2.11l3.74,3.741
	c0.519,0.517,1.511,0.444,2.109-0.154c0.313-0.312,0.495-0.711,0.515-1.123c0.019-0.385-0.109-0.734-0.359-0.986l-3.741-3.74
	C32.896,41.332,32.572,41.202,32.217,41.202L32.217,41.202z M36.774,14.477L48.76,26.46l4.484-4.484L41.26,9.991L36.774,14.477
	L36.774,14.477z M26.032,43.79l-3.741,3.742c-0.25,0.25-0.378,0.6-0.36,0.983c0.019,0.413,0.202,0.813,0.514,1.125
	c0.599,0.599,1.591,0.672,2.109,0.154l3.741-3.74c0.25-0.252,0.379-0.601,0.36-0.986c-0.019-0.412-0.203-0.812-0.515-1.125
	c-0.328-0.327-0.764-0.516-1.195-0.516C26.59,43.427,26.265,43.556,26.032,43.79L26.032,43.79z M22.643,40.401l-3.74,3.74
	c-0.539,0.54-0.47,1.486,0.154,2.111c0.597,0.599,1.59,0.672,2.109,0.153l3.741-3.742c0.539-0.538,0.47-1.484-0.154-2.108
	c-0.329-0.327-0.766-0.516-1.197-0.516C23.201,40.04,22.876,40.167,22.643,40.401L22.643,40.401z M14.388,39.628l3.741-3.74
	c0.251-0.252,0.379-0.601,0.36-0.985c-0.02-0.413-0.203-0.813-0.515-1.125c-0.328-0.327-0.764-0.516-1.195-0.516
	c-0.355,0-0.68,0.128-0.914,0.363l-3.74,3.738c-0.251,0.252-0.379,0.603-0.36,0.986c0.02,0.413,0.202,0.813,0.514,1.124
	C12.877,40.072,13.872,40.146,14.388,39.628L14.388,39.628z M19.711,18.773v-0.992c0-1.621,0.944-3.024,2.312-3.69l-3.299-3.299
	L6.74,22.777l4.485,4.484L19.711,18.773L19.711,18.773z M12.349,28.386l3.449,3.45c0.31-0.108,0.64-0.164,0.981-0.164
	c0.851,0,1.697,0.358,2.321,0.982c0.673,0.673,1.003,1.556,0.98,2.406c0.938-0.001,1.784,0.357,2.409,0.981
	c0.593,0.593,0.941,1.365,0.979,2.175c0.004,0.077,0.005,0.156,0.002,0.231c0.937,0,1.782,0.357,2.406,0.982
	c0.674,0.674,1.003,1.556,0.979,2.407c0.785-0.002,1.504,0.249,2.083,0.695c0.086-0.698,0.407-1.389,0.958-1.939
	c0.624-0.626,1.47-0.982,2.319-0.982c0.085-0.076,0.086-0.153,0.089-0.232c0.039-0.81,0.387-1.581,0.979-2.173
	c0.624-0.626,1.47-0.982,2.321-0.982c0.064-0.851,0.394-1.733,1.066-2.407c0.625-0.624,1.471-0.982,2.321-0.982
	c0.084-0.076,0.085-0.153,0.089-0.231c0.038-0.811,0.386-1.582,0.979-2.174c0.173-0.174,0.364-0.329,0.569-0.459l-8.238-8.237
	h-4.078l-2.212,2.211v5.63c0,1.821-1.434,3.302-3.196,3.302c-1.763,0-3.196-1.481-3.196-3.302v-8.548L12.349,28.386L12.349,28.386z
	 M16.864,44.97c-0.851,0-1.697-0.358-2.321-0.982c-0.674-0.673-1.004-1.556-0.98-2.408c-0.939,0.002-1.785-0.355-2.409-0.98
	C9.91,39.355,9.841,37.399,11,36.24l3.476-3.475l-9.149-9.15c-0.437-0.436-0.437-1.238-0.001-1.675L17.885,9.38
	c0.218-0.218,0.523-0.343,0.838-0.344c0.314,0,0.621,0.125,0.839,0.344l4.3,4.299h11.46l5.099-5.1
	c0.437-0.436,1.239-0.436,1.677-0.001l12.559,12.559c0.217,0.218,0.343,0.524,0.344,0.838c0,0.315-0.125,0.621-0.344,0.839
	l-8.848,8.849l2.353,2.352c1.16,1.16,1.091,3.115-0.154,4.359c-0.623,0.624-1.47,0.982-2.319,0.982
	c-0.065,0.851-0.395,1.733-1.068,2.407c-0.625,0.624-1.47,0.982-2.32,0.982c-0.064,0.851-0.395,1.731-1.067,2.405
	c-0.625,0.625-1.471,0.983-2.322,0.983c-0.063,0.851-0.394,1.731-1.066,2.405c-0.624,0.625-1.471,0.983-2.32,0.983
	c-0.781,0-1.505-0.295-2.039-0.829l-3.252-3.253c-0.063,0.646-0.333,1.26-0.813,1.738l-3.74,3.741
	c-0.534,0.534-1.258,0.829-2.038,0.829c-0.851,0-1.697-0.358-2.321-0.982c-0.593-0.594-0.941-1.365-0.979-2.175
	c-0.004-0.079-0.004-0.156-0.003-0.233c-0.937,0.001-1.783-0.355-2.407-0.981c-0.673-0.673-1.003-1.555-0.979-2.407L16.864,44.97
	L16.864,44.97z M20.167,36.65c-0.355,0-0.679,0.13-0.913,0.363l-3.742,3.74c-0.538,0.538-0.469,1.486,0.155,2.11
	c0.599,0.597,1.591,0.67,2.108,0.153l3.741-3.741c0.252-0.252,0.379-0.601,0.361-0.985c-0.02-0.412-0.202-0.811-0.515-1.123
	C21.035,36.838,20.599,36.65,20.167,36.65L20.167,36.65z"/>
</svg>
