<?xml version="1.0" encoding="utf-8"?>
<!-- Generator: Adobe Illustrator 16.0.5, SVG Export Plug-In . SVG Version: 6.00 Build 0)  -->
<!DOCTYPE svg PUBLIC "-//W3C//DTD SVG 1.1//EN" "http://www.w3.org/Graphics/SVG/1.1/DTD/svg11.dtd">
<svg version="1.1" id="PICTOS-MAIN-SECTION" xmlns="http://www.w3.org/2000/svg" xmlns:xlink="http://www.w3.org/1999/xlink"
	 x="0px" y="0px" width="60px" height="60px" viewBox="0 0 60 60" enable-background="new 0 0 60 60" xml:space="preserve">
<g>
	<g>
		<circle fill="#FFFFFF" cx="36.183" cy="13.712" r="1.358"/>
		<path fill="#FFFFFF" d="M19.546,25.228c0.751,0,1.358-0.607,1.358-1.359c0-0.748-0.607-1.356-1.358-1.356
			c-0.747,0-1.357,0.608-1.357,1.356C18.189,24.62,18.8,25.228,19.546,25.228z"/>
		<circle fill="#FFFFFF" cx="11.316" cy="23.87" r="1.358"/>
		<path fill="#FFFFFF" d="M31.488,24.24c-0.227-0.253-0.619-0.273-0.875-0.045c-0.255,0.229-0.275,0.623-0.046,0.877
			c0.013,0.015,0.633,0.683,1.687,1.254l0.908-0.909C32.15,24.951,31.54,24.296,31.488,24.24z"/>
		<circle fill="#FFFFFF" cx="28.579" cy="16.862" r="1.358"/>
		<path fill="#FFFFFF" d="M15.321,34.938c4.469,0,6.159-3.976,6.228-4.146c0.132-0.315-0.02-0.679-0.336-0.81
			c-0.317-0.131-0.681,0.021-0.811,0.337c-0.015,0.034-1.435,3.375-5.081,3.375c-3.597,0-4.797-3.207-4.846-3.346
			c-0.116-0.323-0.47-0.491-0.792-0.377c-0.324,0.114-0.493,0.47-0.378,0.794C9.318,30.807,10.831,34.938,15.321,34.938z"/>
		<path fill="#FFFFFF" d="M15.434,40.404c1.129,0,2.218-0.176,3.242-0.498l6.949-7.074C25.948,31.807,26,30.717,26,29.586v-2.105
			c1,0.893,1.741,1.653,2.714,2.262l0.967-0.905c-1.768-1.031-3.165-2.624-3.985-4.606l-4.318-10.471l17.689-7.328l3.832,9.244
			l0.953-0.951l-3.869-9.343c-0.063-0.151-0.185-0.272-0.337-0.336c-0.151-0.063-0.322-0.063-0.475,0l-18.828,7.805
			c-0.316,0.131-0.466,0.494-0.335,0.811l1.384,3.347L5.243,17.012c-0.343,0.001-0.621,0.279-0.621,0.621L4.618,29.586
			C4.618,35.551,9.469,40.404,15.434,40.404z M5.864,18.254l16.043-0.003l2.668,6.455C24.705,25.016,25,25.313,25,25.607v3.979
			c0,5.279-4.291,9.575-9.569,9.575s-9.572-4.295-9.572-9.573L5.864,18.254z"/>
	</g>
	<g>
		<path fill="#FFFFFF" d="M31.039,49.283c1.046,0,2.028-0.401,2.769-1.133c1.528-1.508,1.528-3.961,0-5.467
			c-0.74-0.732-1.723-1.133-2.769-1.133c-1.044,0-2.03,0.401-2.77,1.133c-0.742,0.728-1.146,1.701-1.146,2.732
			c0,1.034,0.404,2.003,1.146,2.735C29.009,48.882,29.991,49.283,31.039,49.283z M29.372,43.77c0.444-0.438,1.035-0.681,1.667-0.681
			c0.631,0,1.223,0.243,1.665,0.681c0.921,0.908,0.921,2.384,0,3.293c-0.442,0.439-1.034,0.682-1.665,0.682
			c-0.632,0-1.223-0.242-1.667-0.682c-0.447-0.442-0.693-1.027-0.693-1.648C28.679,44.794,28.925,44.212,29.372,43.77z"/>
		<path fill="#FFFFFF" d="M23.404,41.745c1.043,0,2.029-0.4,2.768-1.131c1.528-1.509,1.528-3.961,0-5.47
			c-0.145-0.143-0.304-0.263-0.465-0.379l-1.117,1.113c0.171,0.1,0.335,0.213,0.48,0.355c0.921,0.909,0.921,2.385,0,3.292
			c-0.447,0.441-1.038,0.684-1.666,0.684c-0.632,0-1.224-0.243-1.67-0.684c-0.139-0.136-0.25-0.29-0.349-0.451l-1.11,1.109
			c0.112,0.148,0.224,0.298,0.359,0.431C21.371,41.344,22.355,41.745,23.404,41.745z"/>
		<path fill="#FFFFFF" d="M32.704,28.695c0.451,0.44,0.693,1.023,0.693,1.645c0,0.624-0.242,1.208-0.693,1.647
			c-0.442,0.438-1.034,0.681-1.665,0.681c-0.632,0-1.223-0.243-1.667-0.681c-0.155-0.152-0.274-0.325-0.377-0.505l-1.12,1.117
			c0.121,0.164,0.244,0.328,0.394,0.476c0.74,0.731,1.726,1.132,2.77,1.132c1.046,0,2.028-0.401,2.769-1.132
			c0.742-0.73,1.148-1.701,1.148-2.735c0-1.032-0.406-2.003-1.148-2.734c-0.159-0.156-0.333-0.29-0.511-0.415l-1.124,1.12
			C32.364,28.416,32.547,28.538,32.704,28.695z"/>
		<path fill="#FFFFFF" d="M31.045,51.72c1.838,0,3.644-0.354,5.358-1.057c7.143-2.92,10.546-11.032,7.59-18.08
			c-1.561-3.719-4.619-6.488-8.319-7.764l-1.23,1.228c3.61,1.007,6.622,3.581,8.107,7.124c2.631,6.266-0.394,13.474-6.745,16.071
			c-1.525,0.621-3.126,0.938-4.761,0.938c-5.061,0-9.585-2.982-11.52-7.595c-0.169-0.403-0.313-0.811-0.436-1.221l-1.217,1.214
			c0.072,0.199,0.132,0.398,0.214,0.596C20.265,48.365,25.35,51.72,31.045,51.72z"/>
		<path fill="#FFFFFF" d="M38.676,41.745c1.045,0,2.03-0.4,2.77-1.131c1.528-1.505,1.528-3.961,0-5.47
			c-0.739-0.73-1.725-1.132-2.77-1.132c-1.046,0-2.032,0.402-2.771,1.132c-0.743,0.73-1.148,1.702-1.148,2.735
			c0,1.031,0.405,2.004,1.148,2.735C36.644,41.344,37.63,41.745,38.676,41.745z M37.006,36.232c0.447-0.439,1.04-0.682,1.67-0.682
			c0.629,0,1.22,0.243,1.668,0.682c0.92,0.909,0.92,2.385,0,3.292c-0.448,0.441-1.039,0.684-1.668,0.684
			c-0.63,0-1.223-0.243-1.67-0.684c-0.443-0.438-0.688-1.023-0.688-1.646C36.317,37.256,36.563,36.671,37.006,36.232z"/>
		<path fill="#FFFFFF" d="M32.119,38.941c0.595-0.586,0.595-1.538,0-2.128c-0.598-0.589-1.564-0.589-2.159,0
			c-0.594,0.59-0.594,1.542,0,2.128C30.555,39.531,31.521,39.531,32.119,38.941z"/>
		<path fill="#FFFFFF" d="M53.677,50.435H42.835c1.808-1.655,3.253-3.688,4.229-6.005c1.771-4.224,1.771-8.876,0-13.101
			c-1.728-4.111-4.929-7.283-8.854-9.039l-1.179,1.176c3.816,1.542,6.943,4.526,8.591,8.451c1.611,3.846,1.611,8.08,0,11.924
			c-1.612,3.844-4.646,6.838-8.543,8.43c-1.932,0.79-3.961,1.191-6.033,1.191c-6.368,0-12.061-3.735-14.539-9.518l-1.17,1.167
			C18.181,51.137,24.258,55,31.045,55c0.236,0,0.473-0.009,0.711-0.018C31.808,54.992,31.86,55,31.916,55h21.761
			c0.431,0,0.779-0.346,0.779-0.771v-3.026C54.456,50.777,54.107,50.435,53.677,50.435z M52.897,53.461H38.205
			c0.942-0.424,1.84-0.919,2.678-1.488h12.015V53.461z"/>
	</g>
</g>
</svg>
