<?xml version="1.0" encoding="utf-8"?>
<!-- Generator: Adobe Illustrator 16.0.5, SVG Export Plug-In . SVG Version: 6.00 Build 0)  -->
<!DOCTYPE svg PUBLIC "-//W3C//DTD SVG 1.1//EN" "http://www.w3.org/Graphics/SVG/1.1/DTD/svg11.dtd">
<svg version="1.1" id="PICTOS-MAIN-SECTION" xmlns="http://www.w3.org/2000/svg" xmlns:xlink="http://www.w3.org/1999/xlink"
	 x="0px" y="0px" width="60px" height="60px" viewBox="0 0 60 60" enable-background="new 0 0 60 60" xml:space="preserve">
<path id="CULTURE" fill="#FFFFFF" d="M53.989,22.308c2.8,6.756-0.421,14.531-7.178,17.331c-1.623,0.672-3.329,1.012-5.071,1.012
	c-4.029,0-7.735-1.799-10.212-4.788l0.001,2.582c0,7.315-5.951,13.267-13.264,13.267C10.95,51.711,5,45.76,5,38.444l0.005-14.66
	c0-0.42,0.34-0.76,0.762-0.762l19.807-0.004l-1.698-4.105c-0.16-0.389,0.024-0.834,0.412-0.995L47.38,8.347
	c0.188-0.077,0.397-0.077,0.583,0c0.187,0.078,0.335,0.227,0.413,0.412L53.989,22.308L53.989,22.308z M30.006,38.444l-0.001-4.881
	c-0.188-0.359-0.366-0.725-0.523-1.105l-3.276-7.916L6.529,24.546l-0.005,13.9c0,6.474,5.268,11.741,11.742,11.741
	S30.006,44.92,30.006,38.444L30.006,38.444z M46.228,38.23c5.981-2.478,8.832-9.359,6.354-15.34L47.26,10.047l-21.684,8.988
	l5.313,12.842c1.824,4.405,6.083,7.25,10.851,7.25C43.28,39.127,44.79,38.825,46.228,38.23L46.228,38.23z M33.75,21.298
	c0.851-0.351,1.825,0.051,2.177,0.9c0.353,0.852-0.052,1.825-0.902,2.178c-0.849,0.353-1.823-0.051-2.176-0.903
	C32.497,22.624,32.901,21.651,33.75,21.298L33.75,21.298z M45.604,34.813c-5.086,2.107-8.74-1.863-8.777-1.904
	c-0.281-0.313-0.256-0.794,0.057-1.076c0.313-0.279,0.794-0.255,1.073,0.056c0.125,0.138,2.991,3.204,7.064,1.519
	c4.105-1.701,4.171-6.029,4.171-6.211c0.003-0.419,0.344-0.759,0.764-0.759s0.76,0.339,0.76,0.759
	C50.718,27.419,50.668,32.716,45.604,34.813L45.604,34.813z M44.352,20.514c-0.848,0.351-1.825-0.051-2.178-0.903
	c-0.352-0.849,0.056-1.823,0.902-2.175c0.851-0.353,1.824,0.051,2.176,0.9C45.604,19.187,45.201,20.161,44.352,20.514L44.352,20.514
	z M25.353,38.931c0.389,0.161,0.575,0.607,0.413,0.994c-0.085,0.208-2.158,5.084-7.638,5.084c-5.507,0-7.363-5.068-7.38-5.118
	c-0.14-0.397,0.067-0.833,0.464-0.974c0.396-0.14,0.83,0.066,0.972,0.462c0.061,0.171,1.533,4.104,5.944,4.104
	c4.471,0,6.213-4.097,6.23-4.139C24.518,38.956,24.963,38.771,25.353,38.931L25.353,38.931z M23.309,33.099
	c-0.915,0-1.665-0.745-1.665-1.667c0-0.918,0.75-1.664,1.665-1.664c0.922,0,1.667,0.746,1.667,1.664
	C24.976,32.354,24.231,33.099,23.309,33.099L23.309,33.099z M13.215,33.099c-0.919,0-1.665-0.745-1.665-1.667
	c0-0.918,0.746-1.664,1.665-1.664c0.92,0,1.666,0.746,1.666,1.664C14.881,32.354,14.136,33.099,13.215,33.099L13.215,33.099z"/>
</svg>
