<?xml version="1.0" encoding="utf-8"?>
<!-- Generator: Adobe Illustrator 16.0.5, SVG Export Plug-In . SVG Version: 6.00 Build 0)  -->
<!DOCTYPE svg PUBLIC "-//W3C//DTD SVG 1.1//EN" "http://www.w3.org/Graphics/SVG/1.1/DTD/svg11.dtd">
<svg version="1.1" id="PICTOS-MAIN-SECTION" xmlns="http://www.w3.org/2000/svg" xmlns:xlink="http://www.w3.org/1999/xlink"
	 x="0px" y="0px" width="60px" height="60px" viewBox="0 0 60 60" enable-background="new 0 0 60 60" xml:space="preserve">
<path fill="#FFFFFF" d="M54.515,34.025L15.507,50.178c-0.19,0.08-0.406,0.08-0.602,0c-0.191-0.08-0.344-0.232-0.426-0.426
	l-0.899-2.172c-0.156-0.388,0.011-0.829,0.386-1.013c0.698-0.339,1.014-1.168,0.717-1.893c-0.302-0.72-1.112-1.082-1.847-0.83
	c-0.395,0.137-0.826-0.055-0.986-0.442l-1.216-2.939c-0.158-0.384,0.009-0.826,0.383-1.007c0.704-0.343,1.018-1.172,0.718-1.892
	c-0.3-0.724-1.112-1.088-1.845-0.833c-0.393,0.137-0.826-0.059-0.984-0.442l-1.22-2.937c-0.158-0.387,0.012-0.831,0.387-1.012
	c0.698-0.339,1.014-1.17,0.716-1.891c-0.296-0.721-1.108-1.087-1.847-0.83c-0.395,0.133-0.824-0.061-0.986-0.446l-0.896-2.173
	C4.894,26.6,5.083,26.14,5.486,25.973L44.479,9.822c0.403-0.166,0.861,0.025,1.028,0.426l0.9,2.174
	c0.16,0.385-0.008,0.828-0.382,1.012c-0.702,0.339-1.016,1.172-0.718,1.89c0.297,0.723,1.106,1.088,1.844,0.831
	c0.395-0.135,0.828,0.06,0.986,0.442l1.219,2.939c0.158,0.384-0.01,0.828-0.385,1.012c-0.701,0.337-1.02,1.168-0.717,1.892
	c0.297,0.719,1.109,1.085,1.842,0.829c0.396-0.133,0.826,0.059,0.986,0.446l1.219,2.934c0.158,0.385-0.01,0.828-0.385,1.01
	C51.216,28,50.901,28.831,51.2,29.55c0.299,0.723,1.107,1.088,1.846,0.834c0.393-0.137,0.824,0.057,0.984,0.44l0.855,2.062
	c0.018,0.034,0.039,0.073,0.055,0.11C55.106,33.398,54.915,33.858,54.515,34.025L54.515,34.025z M40.43,13.203L49.247,34.5
	l3.928-1.626l-0.352-0.844c-1.295,0.108-2.561-0.623-3.08-1.875s-0.139-2.666,0.854-3.504l-0.719-1.737
	c-1.295,0.11-2.561-0.621-3.082-1.872c-0.519-1.252-0.141-2.669,0.854-3.505l-0.719-1.737c-1.295,0.112-2.561-0.62-3.08-1.874
	c-0.52-1.252-0.141-2.666,0.852-3.502l-0.35-0.847L40.43,13.203L40.43,13.203z M12.196,24.899l8.82,21.292l26.776-11.089
	l-8.816-21.295L12.196,24.899L12.196,24.899z M19.558,46.797l-8.817-21.292l-3.926,1.623l0.352,0.847
	c1.296-0.114,2.563,0.622,3.079,1.875c0.517,1.25,0.142,2.662-0.852,3.5l0.721,1.736c1.293-0.112,2.557,0.622,3.076,1.874
	c0.521,1.254,0.146,2.666-0.851,3.504l0.719,1.737c1.291-0.108,2.557,0.623,3.079,1.871c0.519,1.254,0.139,2.667-0.852,3.504
	l0.35,0.846L19.558,46.797L19.558,46.797z M31.426,33.458c0.151-0.064,0.32-0.08,0.485-0.037l4.346,1.041l-2.904-3.397
	c-0.22-0.257-0.248-0.632-0.07-0.923l2.335-3.808l-4.129,1.708c-0.314,0.129-0.679,0.044-0.9-0.217l-2.9-3.395l0.35,4.454
	c0.027,0.337-0.17,0.657-0.483,0.789l-4.129,1.71l4.344,1.042c0.33,0.08,0.575,0.362,0.602,0.703l0.35,4.454l2.335-3.809
	C31.147,33.629,31.275,33.521,31.426,33.458L31.426,33.458z M38.731,36.521c-0.15,0.062-0.32,0.078-0.486,0.039l-6.145-1.476
	l-3.303,5.39c-0.18,0.289-0.524,0.431-0.854,0.352c-0.332-0.078-0.575-0.362-0.602-0.702l-0.497-6.304l-6.143-1.472
	c-0.332-0.082-0.575-0.362-0.604-0.705c-0.025-0.341,0.17-0.659,0.486-0.79l5.837-2.417l-0.496-6.299
	c-0.025-0.343,0.168-0.661,0.483-0.792c0.318-0.129,0.677-0.041,0.902,0.217l4.104,4.805l5.838-2.417
	c0.314-0.132,0.678-0.043,0.9,0.215c0.222,0.261,0.25,0.632,0.07,0.925l-3.299,5.386l4.104,4.805
	c0.223,0.261,0.25,0.632,0.071,0.924C39.011,36.351,38.88,36.459,38.731,36.521L38.731,36.521z"/>
</svg>
