<?xml version="1.0" encoding="utf-8"?>
<!-- Generator: Adobe Illustrator 16.0.5, SVG Export Plug-In . SVG Version: 6.00 Build 0)  -->
<!DOCTYPE svg PUBLIC "-//W3C//DTD SVG 1.1//EN" "http://www.w3.org/Graphics/SVG/1.1/DTD/svg11.dtd">
<svg version="1.1" id="PICTOS-MAIN-SECTION" xmlns="http://www.w3.org/2000/svg" xmlns:xlink="http://www.w3.org/1999/xlink"
	 x="0px" y="0px" width="60px" height="60px" viewBox="0 0 60 60" enable-background="new 0 0 60 60" xml:space="preserve">
<path fill="#FFFFFF" d="M53.137,15.917c0.759-1.83-0.072-3.917-1.852-4.654c-0.417-0.173-0.854-0.26-1.301-0.26
	c-1.439,0-2.733,0.88-3.299,2.241l-7.302,17.632l6.451,2.672L53.137,15.917L53.137,15.917z M50.299,30.378h-1.438l-1.867,4.507
	c-0.128,0.305-0.422,0.489-0.731,0.489c-0.103,0-0.204-0.02-0.303-0.061l-0.112-0.047l-0.922,4.184
	c-0.058,0.258-0.238,0.47-0.482,0.566c-2.038,0.803-4.93,2.816-6.28,4.965c-0.148,0.237-0.404,0.371-0.67,0.371
	c-0.103,0-0.204-0.02-0.304-0.061c-0.356-0.147-0.555-0.53-0.469-0.907c0.565-2.475-0.057-5.943-0.93-7.951
	c-0.104-0.242-0.083-0.519,0.06-0.742l2.308-3.61l-0.111-0.046c-0.194-0.08-0.349-0.234-0.43-0.429
	c-0.079-0.193-0.079-0.412,0-0.605l0.259-0.624H6.583v18.618h43.716V30.378L50.299,30.378z M41.249,37.563l-1.389,3.352
	c1.188-0.935,2.474-1.708,3.608-2.206l0.892-4.057l-4.717-1.954l-2.237,3.5c0.449,1.152,0.813,2.609,0.991,4.11l1.378-3.324
	c-0.162-0.308-0.196-0.68-0.054-1.026c0.259-0.619,0.968-0.913,1.588-0.657c0.617,0.256,0.913,0.967,0.657,1.586
	C41.828,37.218,41.562,37.452,41.249,37.563L41.249,37.563z M51.891,9.801c2.585,1.07,3.8,4.085,2.709,6.722l-5.083,12.271h1.573
	c0.438,0,0.791,0.355,0.791,0.792v20.202c0,0.437-0.354,0.791-0.791,0.791H5.791C5.355,50.579,5,50.225,5,49.788V29.586
	c0-0.437,0.355-0.792,0.791-0.792h32.741l6.691-16.156c0.81-1.955,2.678-3.218,4.761-3.218C50.64,9.421,51.283,9.549,51.891,9.801
	L51.891,9.801z M31.984,36.604c0.437,0,0.792,0.354,0.792,0.792c0,0.438-0.355,0.792-0.792,0.792H21.728
	c-0.438,0-0.792-0.354-0.792-0.792c0-0.437,0.354-0.792,0.792-0.792H31.984L31.984,36.604z M31.984,41.187
	c0.437,0,0.792,0.354,0.792,0.792c0,0.437-0.355,0.791-0.792,0.791H21.728c-0.438,0-0.792-0.354-0.792-0.791
	c0-0.438,0.354-0.792,0.792-0.792H31.984L31.984,41.187z M14.715,41.429h-1.971c0.633,1.085,1.81,1.816,3.155,1.816
	c1.021,0,2.002-0.433,2.692-1.186c0.222-0.241,0.595-0.258,0.837-0.037c0.24,0.221,0.257,0.595,0.037,0.836
	c-0.914,0.999-2.213,1.571-3.566,1.571c-2.017,0-3.749-1.242-4.473-3.001h-1.163c-0.327,0-0.592-0.265-0.592-0.592
	c0-0.327,0.265-0.592,0.592-0.592h0.845c-0.028-0.212-0.043-0.429-0.043-0.649c0-0.078,0.002-0.156,0.005-0.234h-0.808
	c-0.327,0-0.592-0.265-0.592-0.592c0-0.327,0.265-0.592,0.592-0.592h1.015c0.607-1.976,2.448-3.416,4.621-3.416
	c1.242,0,2.422,0.47,3.323,1.324c0.237,0.225,0.247,0.6,0.022,0.837s-0.6,0.247-0.837,0.023c-0.681-0.645-1.572-1-2.509-1
	c-1.51,0-2.809,0.921-3.362,2.231h2.178c0.327,0,0.593,0.265,0.593,0.592c0,0.327-0.266,0.592-0.593,0.592h-2.458
	c-0.005,0.077-0.008,0.156-0.008,0.234c0,0.222,0.02,0.438,0.058,0.649h2.407c0.327,0,0.593,0.265,0.593,0.592
	C15.308,41.164,15.042,41.429,14.715,41.429L14.715,41.429z"/>
</svg>
