<?xml version="1.0" encoding="utf-8"?>
<!-- Generator: Adobe Illustrator 16.0.5, SVG Export Plug-In . SVG Version: 6.00 Build 0)  -->
<!DOCTYPE svg PUBLIC "-//W3C//DTD SVG 1.1//EN" "http://www.w3.org/Graphics/SVG/1.1/DTD/svg11.dtd">
<svg version="1.1" id="PICTOS-MAIN-SECTION" xmlns="http://www.w3.org/2000/svg" xmlns:xlink="http://www.w3.org/1999/xlink"
	 x="0px" y="0px" width="60px" height="60px" viewBox="0 0 60 60" enable-background="new 0 0 60 60" xml:space="preserve">
<path id="MEDIA" fill="#FFFFFF" d="M53.089,49.113v-1.825H38.353c-1.027,0.697-2.127,1.307-3.283,1.825H53.089L53.089,49.113z
	 M8.396,37.313c3.011,7.167,10.033,11.801,17.891,11.801c2.542,0,5.031-0.492,7.399-1.462c4.779-1.952,8.5-5.623,10.479-10.339
	c1.976-4.715,1.976-9.908,0-14.625c-3.011-7.168-10.033-11.799-17.895-11.799c-2.538,0-5.027,0.491-7.396,1.46
	c-4.778,1.952-8.499,5.624-10.479,10.339S6.417,32.598,8.396,37.313L8.396,37.313z M54.045,45.401c0.528,0,0.955,0.42,0.955,0.943
	v3.711C55,50.576,54.573,51,54.045,51H27.355c-0.067,0-0.132-0.009-0.196-0.021C26.868,50.99,26.578,51,26.287,51
	c-8.636,0-16.35-5.09-19.655-12.965c-2.176-5.181-2.176-10.887,0-16.068c2.172-5.183,6.26-9.216,11.511-11.362
	C20.745,9.541,23.477,9,26.271,9c8.64,0,16.354,5.089,19.662,12.967c2.173,5.181,2.173,10.887,0,16.068
	c-1.197,2.844-2.969,5.336-5.187,7.366H54.045L54.045,45.401z M42.168,23.505c3.626,8.645-0.548,18.595-9.309,22.177
	c-2.104,0.86-4.317,1.296-6.572,1.296c-6.985,0-13.222-4.114-15.893-10.481c-3.627-8.648,0.544-18.598,9.304-22.177
	c2.104-0.859,4.318-1.297,6.573-1.297C33.256,13.023,39.497,17.14,42.168,23.505L42.168,23.505z M32.127,43.939
	c7.789-3.187,11.499-12.027,8.272-19.713c-2.372-5.658-7.918-9.316-14.128-9.316c-2.006,0-3.97,0.388-5.84,1.152
	c-7.786,3.183-11.495,12.025-8.273,19.711c2.373,5.659,7.922,9.316,14.129,9.316C28.293,45.09,30.257,44.7,32.127,43.939
	L32.127,43.939z M20.311,26.646c1.874,1.851,1.874,4.859,0,6.71c-0.906,0.896-2.115,1.387-3.396,1.387
	c-1.285,0-2.494-0.49-3.396-1.387c-0.91-0.896-1.409-2.09-1.409-3.354c0-1.268,0.499-2.46,1.409-3.356
	c0.902-0.895,2.111-1.388,3.396-1.388C18.199,25.258,19.404,25.75,20.311,26.646L20.311,26.646z M18.958,32.02
	c1.13-1.113,1.13-2.923,0-4.038c-0.548-0.538-1.272-0.836-2.043-0.836c-0.774,0-1.5,0.298-2.048,0.836
	c-0.548,0.539-0.847,1.255-0.847,2.02c0,0.761,0.299,1.481,0.847,2.018c0.548,0.541,1.273,0.839,2.048,0.839
	C17.686,32.858,18.41,32.561,18.958,32.02L18.958,32.02z M26.279,34.504c1.284,0,2.489,0.492,3.396,1.39
	c1.873,1.848,1.873,4.856,0,6.706c-0.907,0.897-2.112,1.389-3.396,1.389s-2.489-0.491-3.396-1.389
	c-0.91-0.896-1.405-2.086-1.405-3.354c0-1.266,0.495-2.459,1.405-3.352C23.79,34.996,24.999,34.504,26.279,34.504L26.279,34.504z
	 M28.323,41.267c1.129-1.115,1.129-2.927,0-4.04c-0.544-0.538-1.27-0.836-2.044-0.836s-1.5,0.298-2.044,0.836
	c-0.548,0.542-0.85,1.257-0.85,2.019s0.302,1.48,0.85,2.021c0.544,0.538,1.27,0.836,2.044,0.836S27.779,41.805,28.323,41.267
	L28.323,41.267z M26.279,25.498c-1.28,0-2.489-0.493-3.396-1.389c-1.873-1.848-1.873-4.857,0-6.708
	c0.907-0.896,2.116-1.388,3.396-1.388c1.284,0,2.489,0.492,3.396,1.388c0.91,0.896,1.408,2.087,1.408,3.354
	c0,1.267-0.498,2.459-1.408,3.354C28.769,25.005,27.563,25.498,26.279,25.498L26.279,25.498z M24.235,18.736
	c-1.129,1.113-1.129,2.926,0,4.04c0.544,0.537,1.27,0.835,2.044,0.835s1.5-0.298,2.044-0.835c0.552-0.539,0.85-1.256,0.85-2.021
	c0-0.763-0.298-1.479-0.85-2.018c-0.544-0.539-1.27-0.837-2.044-0.837S24.779,18.198,24.235,18.736L24.235,18.736z M39.044,26.646
	c1.873,1.851,1.873,4.863,0,6.71c-0.907,0.896-2.116,1.387-3.396,1.387c-1.284,0-2.493-0.49-3.399-1.387
	c-0.911-0.896-1.409-2.09-1.409-3.354c0-1.268,0.498-2.459,1.409-3.356c0.906-0.895,2.115-1.388,3.399-1.388
	C36.928,25.258,38.137,25.75,39.044,26.646L39.044,26.646z M37.691,32.02c1.129-1.113,1.129-2.923,0-4.038
	c-0.548-0.538-1.273-0.836-2.044-0.836c-0.774,0-1.5,0.298-2.048,0.836c-0.547,0.539-0.846,1.255-0.846,2.02
	c0,0.763,0.299,1.481,0.846,2.018c0.548,0.541,1.273,0.839,2.048,0.839C36.418,32.858,37.144,32.561,37.691,32.02L37.691,32.02z
	 M24.957,28.694c0.729-0.722,1.915-0.722,2.648,0c0.729,0.723,0.729,1.891,0,2.61c-0.733,0.724-1.919,0.724-2.648,0
	C24.229,30.585,24.229,29.417,24.957,28.694L24.957,28.694z"/>
</svg>
