<?xml version="1.0" encoding="utf-8"?>
<!-- Generator: Adobe Illustrator 16.0.5, SVG Export Plug-In . SVG Version: 6.00 Build 0)  -->
<!DOCTYPE svg PUBLIC "-//W3C//DTD SVG 1.1//EN" "http://www.w3.org/Graphics/SVG/1.1/DTD/svg11.dtd">
<svg version="1.1" id="PICTOS-MAIN-SECTION" xmlns="http://www.w3.org/2000/svg" xmlns:xlink="http://www.w3.org/1999/xlink"
	 x="0px" y="0px" width="37.549px" height="37.813px" viewBox="-4.912 4.141 37.549 37.813"
	 enable-background="new -4.912 4.141 37.549 37.813" xml:space="preserve">
<path fill="#6D6D6D" d="M31.816,36.217c0.291,0.292,0.291,0.762,0,1.052l-3.649,3.65c-0.14,0.142-0.328,0.219-0.525,0.219
	c-0.198,0-0.387-0.077-0.527-0.219l-9.66-9.661c-2.173,1.325-4.672,2.034-7.282,2.034c-3.747,0-7.27-1.46-9.92-4.109
	c-2.649-2.649-4.109-6.173-4.109-9.92c0-3.75,1.459-7.272,4.109-9.921c2.645-2.646,6.168-4.103,9.92-4.103s7.274,1.457,9.92,4.102
	c2.649,2.651,4.108,6.175,4.108,9.922c0,2.616-0.712,5.121-2.041,7.295L31.816,36.217L31.816,36.217z M1.304,28.131
	c2.369,2.369,5.519,3.674,8.868,3.674s6.499-1.305,8.869-3.674c2.368-2.369,3.673-5.519,3.673-8.87c0-3.35-1.305-6.5-3.674-8.87
	c-2.365-2.364-5.514-3.666-8.868-3.666c-3.354,0-6.504,1.302-8.868,3.667c-2.369,2.369-3.673,5.519-3.673,8.87
	S-1.065,25.763,1.304,28.131L1.304,28.131z M27.641,39.343l2.596-2.6l-8.938-8.94c-0.37,0.48-0.771,0.942-1.207,1.38
	c-0.44,0.439-0.907,0.845-1.393,1.219L27.641,39.343L27.641,39.343z M17.345,12.088c1.916,1.917,2.972,4.464,2.971,7.173
	c0.001,2.709-1.055,5.256-2.97,7.174c-1.914,1.914-4.462,2.967-7.174,2.967c-2.713,0-5.261-1.053-7.173-2.967
	c-1.916-1.915-2.971-4.463-2.971-7.174c0-2.709,1.055-5.257,2.971-7.173s4.463-2.972,7.173-2.972
	C12.881,9.116,15.427,10.172,17.345,12.088L17.345,12.088z M16.293,25.385c1.635-1.638,2.533-3.811,2.533-6.124
	c0-2.312-0.899-4.486-2.533-6.121c-1.637-1.636-3.81-2.537-6.122-2.537S5.685,11.505,4.05,13.14
	c-1.634,1.636-2.534,3.81-2.534,6.122c0,2.313,0.899,4.488,2.534,6.124c1.633,1.632,3.806,2.529,6.122,2.529
	C12.487,27.915,14.66,27.017,16.293,25.385L16.293,25.385z M15.18,18.516c0.41,0,0.745,0.333,0.745,0.744
	c0,0.411-0.335,0.744-0.745,0.744h-4.265v4.265c0,0.409-0.333,0.744-0.744,0.744c-0.411,0-0.745-0.335-0.745-0.744v-4.265H5.163
	c-0.411,0-0.745-0.333-0.745-0.744c0-0.411,0.333-0.744,0.745-0.744h4.264v-4.264c0-0.411,0.333-0.745,0.745-0.745
	c0.411,0,0.744,0.333,0.744,0.745v4.264H15.18L15.18,18.516z"/>
</svg>
