<?xml version="1.0" encoding="utf-8"?>
<!-- Generator: Adobe Illustrator 16.0.5, SVG Export Plug-In . SVG Version: 6.00 Build 0)  -->
<!DOCTYPE svg PUBLIC "-//W3C//DTD SVG 1.1//EN" "http://www.w3.org/Graphics/SVG/1.1/DTD/svg11.dtd">
<svg version="1.1" id="PICTOS-MAIN-SECTION" xmlns="http://www.w3.org/2000/svg" xmlns:xlink="http://www.w3.org/1999/xlink"
	 x="0px" y="0px" width="60px" height="60px" viewBox="0 0 60 60" enable-background="new 0 0 60 60" xml:space="preserve">
<path fill="#FFFFFF" d="M30.964,33.961v-5.194c0-0.532-0.431-0.961-0.962-0.961c-0.53,0-0.961,0.429-0.961,0.961v5.196l-5.037,5.867
	c-0.346,0.402-0.302,1.008,0.103,1.355c0.183,0.156,0.404,0.232,0.625,0.232c0.271,0,0.541-0.112,0.73-0.333l4.541-5.289
	l4.542,5.289c0.19,0.221,0.458,0.333,0.729,0.333c0.222,0,0.445-0.076,0.626-0.232c0.403-0.345,0.45-0.953,0.103-1.355
	L30.964,33.961z"/>
<path fill="#FFFFFF" d="M55.951,35.564H40.056c-0.581,0-1.054,0.475-1.054,1.055v10.635c0,0.579,0.473,1.053,1.054,1.053h6.14v1.619
	h-2.972c-0.327,0-0.594,0.268-0.594,0.593v0.968c0,0.327,0.267,0.594,0.594,0.594h9.56c0.326,0,0.591-0.267,0.591-0.593v-0.969
	c0-0.324-0.265-0.593-0.591-0.593h-2.972v-1.619h6.14c0.579,0,1.051-0.474,1.051-1.053V36.619
	C57.002,36.039,56.53,35.564,55.951,35.564z M55.554,44.432c0.002,0.178-0.143,0.318-0.316,0.318H40.77
	c-0.176,0-0.317-0.142-0.317-0.318v-7.166c0-0.173,0.142-0.316,0.317-0.316h14.468c0.174,0,0.316,0.144,0.316,0.316V44.432z"/>
<path fill="#FFFFFF" d="M19.952,35.564H4.057c-0.582,0-1.054,0.475-1.054,1.055v10.635c0,0.579,0.473,1.053,1.054,1.053h6.139v1.619
	H7.224c-0.327,0-0.593,0.268-0.593,0.593v0.968c0,0.327,0.266,0.594,0.593,0.594h9.56c0.326,0,0.591-0.267,0.591-0.593v-0.969
	c0-0.324-0.265-0.593-0.591-0.593h-2.972v-1.619h6.139c0.579,0,1.052-0.474,1.052-1.053V36.619
	C21.003,36.039,20.531,35.564,19.952,35.564z M19.554,44.432c0.002,0.178-0.142,0.318-0.316,0.318H4.771
	c-0.176,0-0.317-0.142-0.317-0.318v-7.166c0-0.173,0.142-0.316,0.317-0.316h14.467c0.174,0,0.316,0.144,0.316,0.316V44.432z"/>
<path fill="#FFFFFF" d="M37.953,8.765H22.056c-0.58,0-1.053,0.474-1.053,1.054v10.636c0,0.579,0.473,1.053,1.053,1.053h6.141v1.619
	h-2.972c-0.328,0-0.594,0.268-0.594,0.593v0.967c0,0.327,0.266,0.593,0.594,0.593h9.559c0.325,0,0.591-0.266,0.591-0.592v-0.969
	c0-0.324-0.266-0.593-0.591-0.593h-2.973v-1.619h6.142c0.577,0,1.05-0.474,1.05-1.053V9.819C39.003,9.239,38.53,8.765,37.953,8.765z
	 M37.554,17.632c0.003,0.177-0.142,0.317-0.315,0.317H22.77c-0.176,0-0.317-0.142-0.317-0.317v-7.166
	c0-0.173,0.142-0.316,0.317-0.316h14.468c0.174,0,0.315,0.143,0.315,0.316V17.632z"/>
</svg>
