<?xml version="1.0" encoding="utf-8"?>
<!-- Generator: Adobe Illustrator 16.0.5, SVG Export Plug-In . SVG Version: 6.00 Build 0)  -->
<!DOCTYPE svg PUBLIC "-//W3C//DTD SVG 1.1//EN" "http://www.w3.org/Graphics/SVG/1.1/DTD/svg11.dtd">
<svg version="1.1" id="PICTOS-MAIN-SECTION" xmlns="http://www.w3.org/2000/svg" xmlns:xlink="http://www.w3.org/1999/xlink"
	 x="0px" y="0px" width="60px" height="60px" viewBox="0 0 60 60" enable-background="new 0 0 60 60" xml:space="preserve">
<g>
	<g>
		<path fill="#FFFFFF" d="M32.657,47.889h-5.314v2.952c0,0.398-0.323,0.721-0.72,0.721h-7.357v2h21.468v-2h-7.356
			c-0.397,0-0.72-0.322-0.72-0.721V47.889L32.657,47.889z M48.429,47.889H34.097v2.232h6.732c0.741,0,1.345,0.604,1.345,1.345v2.189
			c0,0.742-0.604,1.345-1.345,1.345H19.17c-0.741,0-1.344-0.603-1.344-1.345v-2.189c0-0.741,0.603-1.345,1.344-1.345h6.733v-2.232
			H11.571c-1.559,0-2.826-1.267-2.826-2.824v-24.66c0-1.558,1.267-2.826,2.826-2.826h36.858c1.558,0,2.826,1.268,2.826,2.826v24.66
			C51.255,46.622,49.986,47.889,48.429,47.889L48.429,47.889z M11.571,19.018c-0.765,0-1.387,0.622-1.387,1.386v24.66
			c0,0.764,0.622,1.386,1.387,1.386h36.858c0.765,0,1.387-0.622,1.387-1.386v-24.66c0-0.765-0.622-1.386-1.387-1.386H11.571
			L11.571,19.018z M47.006,44.547H12.994c-0.397,0-0.72-0.323-0.72-0.72V21.641c0-0.397,0.323-0.72,0.72-0.72h34.012
			c0.19,0,0.374,0.076,0.51,0.211c0.135,0.134,0.211,0.317,0.211,0.508l-0.001,22.186C47.726,44.224,47.403,44.547,47.006,44.547
			L47.006,44.547z M13.713,43.107h32.573l0.001-20.747H13.713V43.107L13.713,43.107z"/>
	</g>
	<g>
		<g>
			<path fill="#FFFFFF" d="M30,18.579c-0.256,0-0.512-0.098-0.707-0.293l-5.867-5.867c-0.391-0.391-0.391-1.023,0-1.414
				s1.023-0.391,1.414,0l5.867,5.867c0.391,0.391,0.391,1.023,0,1.414C30.512,18.481,30.256,18.579,30,18.579z"/>
		</g>
		<g>
			<path fill="#FFFFFF" d="M30,18.579c-0.256,0-0.512-0.098-0.707-0.293c-0.391-0.391-0.391-1.023,0-1.414L41.872,4.293
				c0.391-0.391,1.023-0.391,1.414,0s0.391,1.023,0,1.414L30.707,18.286C30.512,18.481,30.256,18.579,30,18.579z"/>
		</g>
	</g>
</g>
</svg>
