<?xml version="1.0" encoding="utf-8"?>
<!-- Generator: Adobe Illustrator 16.0.5, SVG Export Plug-In . SVG Version: 6.00 Build 0)  -->
<!DOCTYPE svg PUBLIC "-//W3C//DTD SVG 1.1//EN" "http://www.w3.org/Graphics/SVG/1.1/DTD/svg11.dtd">
<svg version="1.1" id="PICTOS-MAIN-SECTION" xmlns="http://www.w3.org/2000/svg" xmlns:xlink="http://www.w3.org/1999/xlink"
	 x="0px" y="0px" width="60px" height="60px" viewBox="0 0 60 60" enable-background="new 0 0 60 60" xml:space="preserve">
<path fill="#FFFFFF" d="M42.723,42.276H17.276C10.507,42.276,5,36.77,5,30s5.508-12.276,12.277-12.276h25.446
	C49.492,17.724,55,23.23,55,30S49.492,42.276,42.723,42.276L42.723,42.276z M17.276,19.181c-5.966,0-10.82,4.854-10.82,10.819
	s4.854,10.82,10.82,10.82h25.446c5.967,0,10.82-4.854,10.82-10.82s-4.854-10.819-10.82-10.819H17.276L17.276,19.181z M21.674,37.108
	h16.65V22.891h-16.65V37.108L21.674,37.108z M39.053,38.565H20.946c-0.402,0-0.728-0.326-0.728-0.728V22.162
	c0-0.402,0.326-0.728,0.728-0.728h18.106c0.402,0,0.729,0.325,0.729,0.728v15.676C39.781,38.239,39.455,38.565,39.053,38.565
	L39.053,38.565z M13.337,35.826c-2.999,0-5.438-2.44-5.438-5.438s2.439-5.438,5.438-5.438c2.998,0,5.437,2.439,5.437,5.438
	S16.335,35.826,13.337,35.826L13.337,35.826z M13.337,26.407c-2.195,0-3.981,1.785-3.981,3.98s1.786,3.981,3.981,3.981
	c2.195,0,3.981-1.786,3.981-3.981S15.532,26.407,13.337,26.407L13.337,26.407z M15.579,31.115l-1.514,0.001v1.514
	c0,0.401-0.326,0.728-0.728,0.728s-0.728-0.326-0.728-0.728v-1.514l-1.514-0.001c-0.402,0-0.729-0.325-0.729-0.728
	s0.326-0.729,0.729-0.729h1.514v-1.514c0-0.402,0.326-0.729,0.728-0.729s0.728,0.326,0.728,0.729v1.514h1.514
	c0.402,0,0.728,0.326,0.728,0.729S15.981,31.115,15.579,31.115L15.579,31.115z M47.51,32.055c0-0.946,0.768-1.715,1.715-1.715
	s1.715,0.769,1.715,1.715c0,0.947-0.768,1.716-1.715,1.716S47.51,33.002,47.51,32.055L47.51,32.055z M45.162,27.945
	c0-0.947,0.768-1.715,1.715-1.715s1.715,0.768,1.715,1.715c0,0.946-0.768,1.715-1.715,1.715S45.162,28.892,45.162,27.945
	L45.162,27.945z M42.813,32.055c0-0.946,0.768-1.715,1.715-1.715s1.715,0.769,1.715,1.715c0,0.947-0.768,1.716-1.715,1.716
	S42.813,33.002,42.813,32.055L42.813,32.055z"/>
</svg>
