<?xml version="1.0" encoding="utf-8"?>
<!-- Generator: Adobe Illustrator 16.0.5, SVG Export Plug-In . SVG Version: 6.00 Build 0)  -->
<!DOCTYPE svg PUBLIC "-//W3C//DTD SVG 1.1//EN" "http://www.w3.org/Graphics/SVG/1.1/DTD/svg11.dtd">
<svg version="1.1" id="Layer_1" xmlns="http://www.w3.org/2000/svg" xmlns:xlink="http://www.w3.org/1999/xlink" x="0px" y="0px"
	 width="280px" height="280px" viewBox="0 0 280 280" enable-background="new 0 0 280 280" xml:space="preserve">
<g>
	<path fill="#00A349" d="M133.42,96.947c1.549-1.926,4.233-2.06,5.965-0.296l16.05,16.348c1.73,1.764,2.434,5.08,1.563,7.37
		c-0.871,2.289-3.607,4.14-6.08,4.115l-34.809-0.365c-2.472-0.026-3.227-1.624-1.678-3.55L133.42,96.947L133.42,96.947z"/>
	<path fill="#B3D335" d="M153.77,77.81c-3.275,1.099-4.615,4.488-2.979,7.531l13.438,24.963c1.639,3.042,5.719,6.22,9.068,7.063
		l4.02,1.012c3.35,0.843,7.842-0.686,9.982-3.398l10.82-13.705c2.141-2.712,3.096-7.642,2.123-10.957L197.08,79.54
		c-0.973-3.315-2.734-7.874-3.918-10.133c-1.184-2.258-4.83-3.205-8.104-2.106L153.77,77.81L153.77,77.81z"/>
	<path fill="#FBA919" d="M150.191,12.227c-2.613,2.258-6.797,6.058-9.293,8.446l-3.436,3.282c-2.496,2.388-3.601,7.006-2.452,10.264
		l8.341,23.672c1.146,3.258,4.912,5.862,8.367,5.788l28.117-0.609c3.455-0.074,7.258-2.787,8.451-6.029l7.289-19.789
		c1.195-3.242,0.736-8.328-1.021-11.302l-8.014-13.561c-1.758-2.974-6.018-5.533-9.469-5.685l-13.213-0.585
		c-3.451-0.152-8.414,1.57-11.027,3.829L150.191,12.227L150.191,12.227z"/>
	<path fill="#851F82" d="M93.165,29.081c-3.321,0.952-6.134,4.557-6.252,8.009l-0.705,20.631c-0.118,3.452,2.605,6.461,6.053,6.687
		l26.848,1.757c3.448,0.226,6.757-2.373,7.356-5.775l3.714-21.125c0.598-3.402-0.263-8.668-1.915-11.701l-1.025-1.881
		c-1.652-3.033-5.72-4.736-9.041-3.784L93.165,29.081L93.165,29.081z"/>
	<path fill="#F37121" d="M65.89,80.958c-1.515-3.105-0.309-7.059,2.681-8.788l6.464-3.739c2.99-1.73,8.07-2.119,11.289-0.865
		l30.809,12.003c3.219,1.254,4.742,4.881,3.387,8.058l-12.638,29.615c-1.356,3.177-5.202,5.071-8.547,4.208l-9.57-2.467
		c-3.345-0.863-7.322-4.109-8.837-7.213L65.89,80.958L65.89,80.958z"/>
	<polygon fill="#0055A4" points="175.156,229.037 102.997,229.037 102.997,277.311 175.156,277.311 175.156,229.037 	"/>
	<polygon fill="none" stroke="#FFFFFF" stroke-width="1.3" stroke-miterlimit="10" points="175.156,229.037 102.997,229.037 
		102.997,277.311 175.156,277.311 175.156,229.037 	"/>
	<polygon fill="#FFF200" points="139.859,235.901 142.369,235.901 140.346,237.478 141.131,239.979 139.116,238.438 
		137.102,239.979 137.895,237.478 135.856,235.901 138.358,235.901 139.116,233.463 139.859,235.901 	"/>
	<polygon fill="#FFF200" points="139.947,268.094 142.461,268.094 140.438,269.613 141.225,272.018 139.208,270.535 
		137.192,272.018 137.985,269.613 135.945,268.094 138.45,268.094 139.208,265.747 139.947,268.094 	"/>
	<polygon fill="#FFF200" points="147.91,265.962 150.424,265.962 148.4,267.478 149.188,269.885 147.17,268.4 145.156,269.885 
		145.951,267.478 143.906,265.962 146.412,265.962 147.17,263.613 147.91,265.962 	"/>
	<polygon fill="#FFF200" points="147.91,238.05 150.424,238.05 148.4,239.564 149.188,241.973 147.17,240.491 145.156,241.973 
		145.951,239.564 143.906,238.05 146.412,238.05 147.17,235.703 147.91,238.05 	"/>
	<polygon fill="#FFF200" points="153.822,243.961 156.332,243.961 154.309,245.475 155.096,247.884 153.078,246.401 
		151.066,247.884 151.861,245.475 149.818,243.961 152.322,243.961 153.078,241.613 153.822,243.961 	"/>
	<polygon fill="#FFF200" points="153.822,260.13 156.332,260.13 154.309,261.65 155.096,264.058 153.078,262.572 151.066,264.058 
		151.861,261.65 149.818,260.13 152.322,260.13 153.078,257.783 153.822,260.13 	"/>
	<polygon fill="#FFF200" points="156.037,251.922 158.553,251.922 156.527,253.439 157.314,255.848 155.299,254.361 
		153.283,255.848 154.078,253.439 152.033,251.922 154.537,251.922 155.299,249.577 156.037,251.922 	"/>
	<polygon fill="#FFF200" points="131.74,238.068 134.251,238.068 132.226,239.589 133.014,241.995 130.997,240.51 128.983,241.995 
		129.776,239.589 127.737,238.068 130.239,238.068 130.997,235.722 131.74,238.068 	"/>
	<polygon fill="#FFF200" points="125.992,243.979 128.506,243.979 126.482,245.496 127.265,247.903 125.253,246.421 
		123.237,247.903 124.031,245.496 121.989,243.979 124.495,243.979 125.253,241.634 125.992,243.979 	"/>
	<polygon fill="#FFF200" points="123.859,251.941 126.371,251.941 124.346,253.46 125.134,255.867 123.118,254.387 121.104,255.867 
		121.897,253.46 119.856,251.941 122.359,251.941 123.118,249.597 123.859,251.941 	"/>
	<polygon fill="#FFF200" points="125.992,260.149 128.506,260.149 126.482,261.67 127.265,264.077 125.253,262.593 123.237,264.077 
		124.031,261.67 121.989,260.149 124.495,260.149 125.253,257.808 125.992,260.149 	"/>
	<polygon fill="#FFF200" points="131.825,265.981 134.334,265.981 132.31,267.5 133.093,269.906 131.081,268.421 129.066,269.906 
		129.861,267.5 127.821,265.981 130.323,265.981 131.081,263.635 131.825,265.981 	"/>
	<path fill="#FFFFFF" d="M16.178,202.645h3.444v-8.26h9.352v8.26h3.444v-19.6h-3.444v8.147h-9.352v-8.147h-3.444V202.645
		L16.178,202.645z M37.595,202.645h14.672v-3.08H41.039v-5.264h9.828v-3.08h-9.828v-5.096h11.088v-3.08H37.595V202.645
		L37.595,202.645z M56.461,202.645h3.444v-6.832h4.312l4.816,6.832h4.088l-5.292-7.42c2.716-0.784,4.648-2.716,4.648-5.936v-0.057
		c0-1.708-0.588-3.164-1.624-4.228c-1.26-1.232-3.192-1.96-5.656-1.96h-8.736V202.645L56.461,202.645z M59.905,192.761v-6.58h5.012
		c2.548,0,4.06,1.148,4.06,3.248v0.056c0,1.988-1.568,3.276-4.032,3.276H59.905L59.905,192.761z M76.842,202.645h3.444v-19.6h-3.444
		V202.645L76.842,202.645z M89.842,202.645h3.472v-16.408h6.216v-3.191H83.626v3.191h6.216V202.645L89.842,202.645z M98.78,202.645
		h3.528l2.016-4.731h9.268l1.988,4.731h3.64l-8.624-19.74h-3.192L98.78,202.645L98.78,202.645z M105.584,194.86l3.36-7.84
		l3.388,7.84H105.584L105.584,194.86z M130.59,202.98c3.472,0,6.244-1.399,8.176-3.052v-8.232h-8.344v2.996h5.012v3.668
		c-1.204,0.896-2.884,1.484-4.732,1.484c-4.004,0-6.664-2.968-6.664-7v-0.056c0-3.752,2.744-6.916,6.356-6.916
		c2.492,0,3.976,0.812,5.488,2.1l2.184-2.604c-2.016-1.708-4.116-2.66-7.532-2.66c-5.908,0-10.108,4.647-10.108,10.136v0.056
		C120.426,198.612,124.458,202.98,130.59,202.98L130.59,202.98z M143.441,202.645h14.672v-3.08h-11.227v-5.264h9.826v-3.08h-9.826
		v-5.096h11.088v-3.08h-14.533V202.645L143.441,202.645z M170.602,202.645h13.748v-3.136h-10.305v-16.464h-3.443V202.645
		L170.602,202.645z M186.791,202.645h3.527l2.016-4.731h9.27l1.986,4.731h3.641l-8.623-19.74h-3.193L186.791,202.645
		L186.791,202.645z M193.596,194.86l3.359-7.84l3.389,7.84H193.596L193.596,194.86z M210.395,202.645h9.072
		c4.367,0,7.252-1.876,7.252-5.376v-0.056c0-2.66-1.596-3.977-3.893-4.76c1.457-0.757,2.801-2.017,2.801-4.368v-0.057
		c0-1.315-0.447-2.38-1.316-3.247c-1.119-1.12-2.883-1.736-5.123-1.736h-8.793V202.645L210.395,202.645z M222.184,188.645
		c0,1.792-1.484,2.66-3.697,2.66h-4.703v-5.208h4.955c2.213,0,3.445,0.952,3.445,2.492V188.645L222.184,188.645z M223.275,196.849
		v0.056c0,1.765-1.428,2.688-3.781,2.688h-5.711v-5.376h5.459C221.959,194.217,223.275,195.197,223.275,196.849L223.275,196.849z
		 M230.818,202.645h14.672v-3.08h-11.229v-5.264h9.828v-3.08h-9.828v-5.096h11.088v-3.08h-14.531V202.645L230.818,202.645z
		 M249.684,202.645h13.748v-3.136h-10.305v-16.464h-3.443V202.645L249.684,202.645z"/>
	<path fill="#FFFFFF" d="M58.87,172.645h14.672v-3.08H62.314v-5.264h9.828v-3.08h-9.828v-5.096h11.088v-3.08H58.87V172.645
		L58.87,172.645z M85.551,172.953c5.124,0,8.428-2.94,8.428-8.792v-11.116h-3.444v11.284c0,3.611-1.876,5.432-4.928,5.432
		c-3.08,0-4.956-1.932-4.956-5.572v-11.144h-3.444v11.284C77.207,170.013,80.455,172.953,85.551,172.953L85.551,172.953z
		 M98.938,172.645h3.444v-6.832h4.312l4.816,6.832h4.088l-5.292-7.42c2.716-0.784,4.648-2.716,4.648-5.936v-0.057
		c0-1.708-0.588-3.164-1.624-4.228c-1.26-1.232-3.192-1.96-5.656-1.96h-8.736V172.645L98.938,172.645z M102.382,162.761v-6.58h5.012
		c2.548,0,4.06,1.148,4.06,3.248v0.056c0,1.988-1.568,3.276-4.032,3.276H102.382L102.382,162.761z M128.2,172.98
		c6.02,0,10.276-4.62,10.276-10.136v-0.056c0-5.517-4.2-10.08-10.22-10.08s-10.276,4.62-10.276,10.136v0.056
		C117.98,168.417,122.18,172.98,128.2,172.98L128.2,172.98z M128.256,169.789c-3.892,0-6.664-3.137-6.664-6.944v-0.056
		c0-3.809,2.716-6.916,6.608-6.916s6.664,3.164,6.664,6.972v0.056C134.864,166.709,132.148,169.789,128.256,169.789L128.256,169.789
		z M142.67,172.645h3.443v-6.3h3.893c4.313,0,7.84-2.296,7.84-6.692v-0.056c0-3.948-2.855-6.552-7.447-6.552h-7.729V172.645
		L142.67,172.645z M146.113,163.236v-7.056h4.004c2.576,0,4.229,1.204,4.229,3.5v0.056c0,2.045-1.623,3.5-4.229,3.5H146.113
		L146.113,163.236z M161.24,172.645h14.672v-3.08h-11.229v-5.264h9.828v-3.08h-9.828v-5.096h11.088v-3.08H161.24V172.645
		L161.24,172.645z M178.6,172.645h3.527l2.018-4.731h9.268l1.988,4.731h3.639l-8.623-19.74h-3.191L178.6,172.645L178.6,172.645z
		 M185.404,164.86l3.359-7.84l3.389,7.84H185.404L185.404,164.86z M202.203,172.645h3.389v-13.943l10.809,13.943h2.883v-19.6h-3.387
		v13.552l-10.5-13.552h-3.193V172.645L202.203,172.645z"/>
</g>
</svg>
